<?xml version="1.0" encoding="UTF-8"?>
<svg xmlns="http://www.w3.org/2000/svg" xmlns:xlink="http://www.w3.org/1999/xlink" width="99.2pt" height="28.4pt" viewBox="0 0 99.2 28.4" version="1.1">
<g id="surface1">
<path style="fill:none;stroke-width:2.5;stroke-linecap:round;stroke-linejoin:round;stroke:rgb(0%,0%,0%);stroke-opacity:1;stroke-miterlimit:10;" d="M 10.726562 21.333594 C 10.910156 21.302344 11.09375 21.278906 11.277344 21.24375 C 11.460938 21.2125 11.640625 21.173437 11.824219 21.134375 C 12.003906 21.095312 12.183594 21.052344 12.363281 21.005469 C 12.542969 20.9625 12.71875 20.911719 12.898438 20.860937 C 13.074219 20.810156 13.246094 20.755469 13.421875 20.696875 C 13.59375 20.638281 13.765625 20.579687 13.9375 20.513281 C 14.105469 20.450781 14.273438 20.384375 14.441406 20.314062 C 14.605469 20.247656 14.773438 20.173437 14.933594 20.099219 C 15.097656 20.025 15.257812 19.946875 15.414062 19.86875 C 15.574219 19.786719 15.730469 19.704687 15.886719 19.61875 C 16.039062 19.536719 16.191406 19.446875 16.339844 19.357031 C 16.488281 19.267187 16.636719 19.173437 16.78125 19.079687 C 16.925781 18.985937 17.066406 18.888281 17.203125 18.790625 C 17.34375 18.689062 17.480469 18.5875 17.613281 18.485937 C 17.746094 18.384375 17.878906 18.278906 18.007812 18.169531 C 18.132812 18.064062 18.257812 17.954687 18.382812 17.841406 C 18.503906 17.732031 18.621094 17.61875 18.738281 17.505469 C 18.851562 17.388281 18.964844 17.271094 19.074219 17.157812 C 19.183594 17.036719 19.292969 16.919531 19.394531 16.798437 C 19.496094 16.677344 19.597656 16.55625 19.695312 16.43125 C 19.789062 16.310156 19.882812 16.185156 19.972656 16.060156 C 20.0625 15.935156 20.152344 15.80625 20.234375 15.68125 C 20.316406 15.552344 20.394531 15.423437 20.472656 15.294531 C 20.550781 15.165625 20.621094 15.036719 20.691406 14.907812 C 20.761719 14.778906 20.824219 14.646094 20.886719 14.513281 C 20.949219 14.384375 21.007812 14.251562 21.0625 14.11875 C 21.117188 13.985937 21.167969 13.853125 21.21875 13.720312 C 21.265625 13.5875 21.308594 13.454687 21.351562 13.321875 C 21.390625 13.189062 21.425781 13.05625 21.460938 12.923437 C 21.492188 12.794531 21.523438 12.661719 21.550781 12.528906 C 21.578125 12.396094 21.601562 12.263281 21.617188 12.134375 C 21.636719 12.001562 21.652344 11.872656 21.664062 11.74375 C 21.679688 11.614844 21.6875 11.485937 21.691406 11.353125 C 21.699219 11.228125 21.699219 11.099219 21.699219 10.974219 C 21.695312 10.845312 21.691406 10.720312 21.683594 10.595312 C 21.675781 10.470312 21.664062 10.349219 21.648438 10.228125 C 21.632812 10.103125 21.613281 9.982031 21.59375 9.864844 C 21.570312 9.74375 21.546875 9.626562 21.519531 9.509375 C 21.488281 9.396094 21.460938 9.278906 21.425781 9.165625 C 21.390625 9.05625 21.355469 8.942969 21.3125 8.833594 C 21.273438 8.724219 21.230469 8.614844 21.183594 8.509375 C 21.140625 8.403906 21.089844 8.302344 21.039062 8.200781 C 20.988281 8.099219 20.933594 7.997656 20.875 7.903906 C 20.820312 7.80625 20.757812 7.708594 20.695312 7.61875 C 20.636719 7.525 20.570312 7.435156 20.503906 7.345312 C 20.4375 7.259375 20.367188 7.173437 20.296875 7.091406 C 20.226562 7.005469 20.152344 6.927344 20.074219 6.849219 C 20 6.771094 19.921875 6.696875 19.839844 6.622656 C 19.761719 6.552344 19.679688 6.482031 19.597656 6.415625 C 19.511719 6.349219 19.425781 6.286719 19.339844 6.224219 C 19.253906 6.161719 19.164062 6.107031 19.074219 6.048437 C 18.984375 5.99375 18.890625 5.942969 18.800781 5.892187 C 18.707031 5.845312 18.609375 5.798437 18.515625 5.755469 C 18.421875 5.7125 18.324219 5.673437 18.226562 5.634375 C 18.128906 5.599219 18.03125 5.564062 17.929688 5.536719 C 17.832031 5.505469 17.730469 5.478125 17.628906 5.454687 C 17.527344 5.427344 17.425781 5.407812 17.324219 5.392187 C 17.222656 5.372656 17.121094 5.357031 17.015625 5.349219 C 16.914062 5.3375 16.8125 5.329687 16.707031 5.321875 C 16.605469 5.317969 16.5 5.317969 16.398438 5.317969 C 16.296875 5.321875 16.191406 5.325781 16.089844 5.333594 C 15.984375 5.345312 15.882812 5.357031 15.78125 5.36875 C 15.679688 5.384375 15.574219 5.403906 15.472656 5.423437 C 15.371094 5.446875 15.273438 5.470312 15.171875 5.497656 C 15.070312 5.525 14.972656 5.55625 14.875 5.591406 C 14.773438 5.626562 14.679688 5.661719 14.582031 5.704687 C 14.484375 5.74375 14.390625 5.786719 14.296875 5.833594 C 14.199219 5.880469 14.109375 5.93125 14.015625 5.982031 C 13.925781 6.036719 13.835938 6.091406 13.746094 6.15 C 13.660156 6.208594 13.570312 6.271094 13.488281 6.333594 C 13.402344 6.4 13.316406 6.466406 13.238281 6.536719 C 13.15625 6.607031 13.074219 6.677344 12.996094 6.755469 C 12.921875 6.829687 12.84375 6.907812 12.773438 6.989844 C 12.699219 7.067969 12.628906 7.153906 12.558594 7.239844 C 12.488281 7.325781 12.421875 7.411719 12.359375 7.501562 C 12.296875 7.595312 12.234375 7.689062 12.175781 7.782812 C 12.117188 7.876562 12.058594 7.974219 12.003906 8.075781 C 11.949219 8.173437 11.898438 8.275 11.851562 8.380469 C 11.804688 8.485937 11.757812 8.591406 11.714844 8.696875 C 11.671875 8.80625 11.632812 8.915625 11.597656 9.028906 C 11.558594 9.138281 11.527344 9.251562 11.496094 9.36875 C 11.464844 9.482031 11.4375 9.599219 11.414062 9.716406 C 11.390625 9.833594 11.367188 9.954687 11.351562 10.075781 C 11.332031 10.196875 11.320312 10.317969 11.308594 10.442969 C 11.296875 10.564062 11.289062 10.689062 11.285156 10.814062 C 11.28125 10.942969 11.277344 11.067969 11.28125 11.196875 C 11.28125 11.325781 11.289062 11.454687 11.296875 11.583594 C 11.308594 11.7125 11.320312 11.841406 11.335938 11.970312 C 11.351562 12.103125 11.371094 12.232031 11.394531 12.364844 C 11.421875 12.497656 11.445312 12.630469 11.476562 12.759375 C 11.507812 12.892187 11.542969 13.025 11.578125 13.157812 C 11.617188 13.290625 11.660156 13.423437 11.703125 13.55625 C 11.746094 13.689062 11.796875 13.821875 11.847656 13.954687 C 11.902344 14.0875 11.957031 14.220312 12.015625 14.349219 C 12.074219 14.482031 12.136719 14.614844 12.203125 14.74375 C 12.269531 14.876562 12.339844 15.005469 12.414062 15.134375 C 12.484375 15.263281 12.5625 15.392187 12.644531 15.521094 C 12.722656 15.65 12.808594 15.778906 12.894531 15.903906 C 12.980469 16.028906 13.070312 16.153906 13.164062 16.278906 C 13.257812 16.403906 13.355469 16.525 13.457031 16.646094 C 13.558594 16.771094 13.660156 16.888281 13.769531 17.009375 C 13.875 17.126562 13.984375 17.24375 14.097656 17.360937 C 14.210938 17.478125 14.328125 17.591406 14.449219 17.704687 C 14.566406 17.814062 14.691406 17.927344 14.816406 18.036719 C 14.941406 18.142187 15.070312 18.251562 15.199219 18.357031 C 15.332031 18.4625 15.464844 18.564062 15.601562 18.665625 C 15.738281 18.767187 15.878906 18.864844 16.019531 18.9625 C 16.160156 19.05625 16.308594 19.153906 16.453125 19.24375 C 16.601562 19.3375 16.75 19.427344 16.902344 19.513281 C 17.054688 19.599219 17.210938 19.685156 17.367188 19.767187 C 17.523438 19.849219 17.683594 19.927344 17.84375 20.005469 C 18.003906 20.083594 18.164062 20.157812 18.332031 20.228125 C 18.496094 20.298437 18.664062 20.36875 18.832031 20.435156 C 19 20.501562 19.171875 20.564062 19.34375 20.622656 C 19.515625 20.685156 19.6875 20.739844 19.863281 20.794531 C 20.039062 20.849219 20.214844 20.9 20.394531 20.950781 C 20.570312 20.997656 20.75 21.040625 20.929688 21.083594 C 21.109375 21.126562 21.292969 21.165625 21.472656 21.200781 C 21.65625 21.235937 21.839844 21.271094 22.023438 21.298437 C 22.207031 21.329687 22.394531 21.353125 22.578125 21.376562 C 22.765625 21.403906 22.949219 21.419531 23.136719 21.439062 C 23.324219 21.454687 23.511719 21.466406 23.699219 21.478125 C 23.886719 21.489844 24.074219 21.497656 24.261719 21.497656 C 24.449219 21.501562 24.636719 21.501562 24.824219 21.501562 C 25.011719 21.497656 25.199219 21.489844 25.386719 21.482031 C 25.574219 21.474219 25.761719 21.458594 25.949219 21.442969 C 26.136719 21.427344 26.320312 21.407812 26.507812 21.388281 C 26.691406 21.364844 26.878906 21.3375 27.0625 21.310156 C 27.246094 21.282812 27.429688 21.247656 27.613281 21.2125 C 27.796875 21.177344 27.976562 21.142187 28.15625 21.099219 C 28.339844 21.05625 28.519531 21.013281 28.695312 20.966406 C 28.875 20.919531 29.050781 20.86875 29.226562 20.814062 C 29.402344 20.759375 29.574219 20.704687 29.75 20.646094 C 29.921875 20.5875 30.09375 20.521094 30.261719 20.458594 C 30.429688 20.392187 30.597656 20.325781 30.761719 20.255469 C 30.929688 20.18125 31.089844 20.110937 31.253906 20.032812 C 31.414062 19.958594 31.574219 19.876562 31.730469 19.798437 C 31.886719 19.716406 32.042969 19.630469 32.195312 19.544531 C 32.347656 19.458594 32.496094 19.36875 32.644531 19.278906 C 32.792969 19.185156 32.9375 19.091406 33.082031 18.997656 C 33.222656 18.9 33.363281 18.802344 33.503906 18.700781 C 33.640625 18.603125 33.773438 18.497656 33.90625 18.392187 C 34.039062 18.290625 34.167969 18.18125 34.292969 18.075781 C 34.417969 17.966406 34.542969 17.857031 34.664062 17.74375 C 34.78125 17.630469 34.898438 17.517187 35.015625 17.403906 C 35.128906 17.286719 35.238281 17.169531 35.347656 17.052344 C 35.453125 16.93125 35.558594 16.814062 35.660156 16.692969 C 35.761719 16.571875 35.859375 16.446875 35.953125 16.325781 C 36.050781 16.200781 36.140625 16.075781 36.226562 15.950781 C 36.316406 15.825781 36.398438 15.696875 36.480469 15.567969 C 36.5625 15.439062 36.640625 15.310156 36.714844 15.18125 C 36.789062 15.052344 36.859375 14.923437 36.925781 14.790625 C 36.992188 14.661719 37.058594 14.528906 37.117188 14.396094 C 37.175781 14.267187 37.234375 14.134375 37.285156 14.001562 C 37.339844 13.86875 37.386719 13.735937 37.433594 13.603125 C 37.480469 13.470312 37.519531 13.3375 37.558594 13.204687 C 37.597656 13.075781 37.632812 12.939062 37.664062 12.810156 C 37.695312 12.677344 37.722656 12.544531 37.746094 12.411719 C 37.773438 12.282812 37.792969 12.15 37.8125 12.017187 C 37.828125 11.888281 37.839844 11.759375 37.851562 11.630469 C 37.863281 11.497656 37.867188 11.372656 37.871094 11.24375 C 37.875 11.114844 37.875 10.989844 37.871094 10.860937 C 37.867188 10.735937 37.859375 10.610937 37.851562 10.485937 C 37.839844 10.364844 37.824219 10.239844 37.808594 10.11875 C 37.792969 9.997656 37.773438 9.880469 37.746094 9.759375 C 37.726562 9.642187 37.699219 9.525 37.667969 9.407812 C 37.636719 9.294531 37.605469 9.18125 37.570312 9.067969 C 37.535156 8.954687 37.496094 8.845312 37.453125 8.739844 C 37.410156 8.630469 37.367188 8.525 37.320312 8.419531 C 37.269531 8.314062 37.222656 8.2125 37.167969 8.110937 C 37.113281 8.009375 37.058594 7.911719 37 7.817969 C 36.941406 7.720312 36.882812 7.626562 36.816406 7.536719 C 36.753906 7.446875 36.6875 7.357031 36.621094 7.271094 C 36.550781 7.185156 36.480469 7.099219 36.40625 7.017187 C 36.335938 6.935156 36.261719 6.857031 36.183594 6.782812 C 36.105469 6.704687 36.027344 6.630469 35.945312 6.560156 C 35.863281 6.489844 35.78125 6.423437 35.699219 6.357031 C 35.613281 6.294531 35.527344 6.232031 35.4375 6.169531 C 35.351562 6.110937 35.261719 6.05625 35.171875 6.001562 C 35.078125 5.950781 34.984375 5.9 34.890625 5.853125 C 34.796875 5.802344 34.703125 5.759375 34.605469 5.720312 C 34.511719 5.677344 34.414062 5.638281 34.316406 5.603125 C 34.21875 5.567969 34.117188 5.536719 34.019531 5.509375 C 33.917969 5.482031 33.816406 5.454687 33.714844 5.43125 C 33.613281 5.411719 33.511719 5.392187 33.410156 5.376562 C 33.308594 5.360937 33.203125 5.349219 33.101562 5.3375 C 33 5.329687 32.894531 5.321875 32.792969 5.321875 C 32.691406 5.317969 32.585938 5.317969 32.484375 5.321875 C 32.378906 5.325781 32.277344 5.333594 32.171875 5.345312 C 32.070312 5.353125 31.96875 5.36875 31.867188 5.384375 C 31.761719 5.4 31.660156 5.419531 31.5625 5.442969 C 31.460938 5.466406 31.359375 5.49375 31.257812 5.525 C 31.160156 5.552344 31.0625 5.5875 30.964844 5.622656 C 30.863281 5.657812 30.769531 5.696875 30.671875 5.739844 C 30.578125 5.782812 30.480469 5.825781 30.390625 5.876562 C 30.296875 5.923437 30.203125 5.974219 30.113281 6.028906 C 30.023438 6.083594 29.933594 6.142187 29.84375 6.200781 C 29.757812 6.263281 29.671875 6.325781 29.589844 6.392187 C 29.503906 6.458594 29.421875 6.525 29.339844 6.599219 C 29.261719 6.669531 29.183594 6.74375 29.105469 6.821875 C 29.03125 6.9 28.957031 6.978125 28.882812 7.060156 C 28.8125 7.142187 28.742188 7.228125 28.675781 7.314062 C 28.605469 7.4 28.542969 7.489844 28.480469 7.583594 C 28.417969 7.677344 28.355469 7.771094 28.300781 7.86875 C 28.242188 7.9625 28.1875 8.064062 28.132812 8.161719 C 28.082031 8.263281 28.03125 8.36875 27.984375 8.474219 C 27.9375 8.579687 27.894531 8.685156 27.855469 8.794531 C 27.8125 8.903906 27.777344 9.013281 27.742188 9.126562 C 27.707031 9.239844 27.675781 9.353125 27.644531 9.470312 C 27.617188 9.583594 27.589844 9.700781 27.570312 9.821875 C 27.546875 9.939062 27.527344 10.060156 27.511719 10.18125 C 27.496094 10.302344 27.484375 10.427344 27.472656 10.552344 C 27.464844 10.673437 27.460938 10.802344 27.457031 10.927344 C 27.453125 11.052344 27.453125 11.18125 27.460938 11.310156 C 27.464844 11.435156 27.472656 11.564062 27.484375 11.696875 C 27.492188 11.825781 27.507812 11.954687 27.527344 12.0875 C 27.546875 12.216406 27.566406 12.349219 27.59375 12.482031 C 27.617188 12.614844 27.648438 12.74375 27.679688 12.876562 C 27.714844 13.009375 27.75 13.142187 27.789062 13.275 C 27.828125 13.407812 27.871094 13.540625 27.917969 13.673437 C 27.964844 13.80625 28.015625 13.939062 28.070312 14.071875 C 28.125 14.204687 28.183594 14.333594 28.242188 14.466406 C 28.304688 14.599219 28.371094 14.728125 28.4375 14.860937 C 28.507812 14.989844 28.578125 15.11875 28.652344 15.247656 C 28.730469 15.376562 28.808594 15.505469 28.890625 15.634375 C 28.972656 15.763281 29.058594 15.888281 29.148438 16.013281 C 29.234375 16.138281 29.328125 16.263281 29.425781 16.388281 C 29.519531 16.509375 29.617188 16.634375 29.722656 16.755469 C 29.824219 16.876562 29.929688 16.99375 30.039062 17.114844 C 30.148438 17.232031 30.257812 17.345312 30.375 17.4625 C 30.488281 17.575781 30.609375 17.689062 30.730469 17.802344 C 30.851562 17.911719 30.972656 18.021094 31.101562 18.130469 C 31.230469 18.239844 31.359375 18.345312 31.492188 18.446875 C 31.625 18.552344 31.761719 18.653906 31.898438 18.755469 C 32.035156 18.853125 32.179688 18.950781 32.320312 19.044531 C 32.464844 19.142187 32.609375 19.235937 32.761719 19.325781 C 32.90625 19.415625 33.058594 19.505469 33.214844 19.5875 C 33.367188 19.673437 33.523438 19.759375 33.679688 19.8375 C 33.839844 19.919531 33.996094 19.997656 34.160156 20.071875 C 34.320312 20.146094 34.484375 20.220312 34.652344 20.290625 C 34.816406 20.360937 34.984375 20.427344 35.15625 20.49375 C 35.324219 20.55625 35.496094 20.61875 35.671875 20.677344 C 35.84375 20.735937 36.015625 20.790625 36.191406 20.841406 C 36.367188 20.892187 36.546875 20.942969 36.726562 20.989844 C 36.902344 21.036719 37.082031 21.079687 37.265625 21.122656 C 37.445312 21.161719 37.628906 21.196875 37.808594 21.232031 C 37.992188 21.267187 38.175781 21.298437 38.359375 21.325781 C 38.546875 21.353125 38.730469 21.376562 38.917969 21.396094 C 39.101562 21.419531 39.289062 21.435156 39.476562 21.450781 C 39.664062 21.466406 39.851562 21.478125 40.039062 21.485937 C 40.226562 21.49375 40.414062 21.501562 40.601562 21.501562 C 40.789062 21.501562 40.976562 21.501562 41.164062 21.497656 C 41.351562 21.49375 41.539062 21.485937 41.726562 21.474219 C 41.914062 21.4625 42.101562 21.446875 42.289062 21.427344 C 42.476562 21.411719 42.660156 21.388281 42.847656 21.364844 C 43.03125 21.341406 43.214844 21.314062 43.398438 21.282812 C 43.585938 21.251562 43.765625 21.220312 43.949219 21.18125 C 44.132812 21.146094 44.3125 21.107031 44.492188 21.060156 C 44.671875 21.017187 44.851562 20.974219 45.027344 20.923437 C 45.203125 20.872656 45.382812 20.821875 45.554688 20.767187 C 45.730469 20.7125 45.902344 20.653906 46.074219 20.591406 C 46.246094 20.532812 46.414062 20.466406 46.585938 20.4 C 46.753906 20.333594 46.917969 20.263281 47.082031 20.189062 C 47.246094 20.11875 47.410156 20.044531 47.570312 19.966406 C 47.730469 19.888281 47.886719 19.80625 48.042969 19.724219 C 48.199219 19.642187 48.351562 19.55625 48.503906 19.466406 C 48.65625 19.380469 48.804688 19.290625 48.949219 19.196875 C 49.097656 19.103125 49.242188 19.009375 49.382812 18.911719 C 49.523438 18.814062 49.660156 18.716406 49.796875 18.614844 C 49.933594 18.513281 50.066406 18.407812 50.195312 18.302344 C 50.328125 18.196875 50.453125 18.0875 50.578125 17.978125 C 50.703125 17.86875 50.824219 17.759375 50.941406 17.646094 C 51.0625 17.532812 51.175781 17.415625 51.289062 17.302344 C 51.402344 17.185156 51.511719 17.067969 51.617188 16.946875 C 51.722656 16.829687 51.824219 16.708594 51.925781 16.583594 C 52.023438 16.4625 52.117188 16.341406 52.210938 16.216406 C 52.304688 16.091406 52.394531 15.966406 52.480469 15.8375 C 52.566406 15.7125 52.648438 15.583594 52.726562 15.454687 C 52.804688 15.329687 52.882812 15.196875 52.953125 15.067969 C 53.027344 14.939062 53.09375 14.80625 53.160156 14.677344 C 53.222656 14.544531 53.285156 14.415625 53.34375 14.282812 C 53.402344 14.15 53.457031 14.017187 53.507812 13.884375 C 53.558594 13.751562 53.605469 13.622656 53.648438 13.489844 C 53.691406 13.353125 53.730469 13.224219 53.769531 13.091406 C 53.804688 12.958594 53.839844 12.825781 53.867188 12.692969 C 53.894531 12.560156 53.921875 12.427344 53.945312 12.298437 C 53.964844 12.165625 53.984375 12.036719 54 11.903906 C 54.015625 11.775 54.027344 11.642187 54.035156 11.513281 C 54.042969 11.384375 54.046875 11.259375 54.050781 11.130469 C 54.050781 11.001562 54.046875 10.876562 54.042969 10.751562 C 54.035156 10.626562 54.027344 10.501562 54.015625 10.380469 C 54.003906 10.255469 53.988281 10.134375 53.96875 10.013281 C 53.949219 9.892187 53.925781 9.775 53.902344 9.657812 C 53.878906 9.540625 53.847656 9.423437 53.816406 9.310156 C 53.785156 9.192969 53.75 9.079687 53.714844 8.970312 C 53.675781 8.860937 53.632812 8.751562 53.589844 8.642187 C 53.546875 8.536719 53.5 8.43125 53.453125 8.325781 C 53.402344 8.224219 53.351562 8.122656 53.296875 8.025 C 53.242188 7.923437 53.183594 7.829687 53.125 7.732031 C 53.0625 7.638281 53 7.548437 52.9375 7.458594 C 52.871094 7.36875 52.804688 7.278906 52.734375 7.192969 C 52.664062 7.110937 52.59375 7.028906 52.519531 6.946875 C 52.445312 6.86875 52.367188 6.790625 52.289062 6.716406 C 52.210938 6.642187 52.132812 6.567969 52.050781 6.501562 C 51.96875 6.43125 51.882812 6.364844 51.796875 6.302344 C 51.710938 6.239844 51.625 6.177344 51.535156 6.11875 C 51.445312 6.064062 51.355469 6.009375 51.265625 5.954687 C 51.171875 5.903906 51.078125 5.857031 50.984375 5.810156 C 50.890625 5.763281 50.796875 5.724219 50.699219 5.68125 C 50.601562 5.642187 50.503906 5.607031 50.402344 5.575781 C 50.304688 5.540625 50.207031 5.513281 50.105469 5.485937 C 50.003906 5.458594 49.902344 5.435156 49.804688 5.415625 C 49.699219 5.392187 49.597656 5.376562 49.496094 5.364844 C 49.394531 5.349219 49.289062 5.3375 49.1875 5.329687 C 49.085938 5.325781 48.980469 5.317969 48.878906 5.317969 C 48.773438 5.317969 48.671875 5.321875 48.566406 5.325781 C 48.464844 5.333594 48.359375 5.341406 48.257812 5.353125 C 48.15625 5.364844 48.054688 5.380469 47.949219 5.4 C 47.851562 5.419531 47.746094 5.439062 47.648438 5.466406 C 47.546875 5.489844 47.445312 5.521094 47.347656 5.552344 C 47.246094 5.583594 47.148438 5.61875 47.054688 5.653906 C 46.953125 5.692969 46.859375 5.732031 46.765625 5.778906 C 46.667969 5.821875 46.574219 5.86875 46.480469 5.919531 C 46.390625 5.970312 46.296875 6.021094 46.210938 6.079687 C 46.117188 6.134375 46.03125 6.192969 45.945312 6.255469 C 45.859375 6.317969 45.773438 6.384375 45.691406 6.450781 C 45.605469 6.517187 45.527344 6.5875 45.445312 6.661719 C 45.367188 6.735937 45.289062 6.810156 45.214844 6.888281 C 45.140625 6.966406 45.066406 7.048437 44.996094 7.134375 C 44.925781 7.216406 44.855469 7.302344 44.789062 7.392187 C 44.726562 7.482031 44.660156 7.571875 44.601562 7.665625 C 44.539062 7.759375 44.480469 7.853125 44.425781 7.950781 C 44.367188 8.048437 44.316406 8.15 44.265625 8.251562 C 44.214844 8.353125 44.164062 8.458594 44.121094 8.564062 C 44.074219 8.673437 44.035156 8.778906 43.996094 8.888281 C 43.957031 9.001562 43.921875 9.110937 43.886719 9.224219 C 43.855469 9.3375 43.824219 9.454687 43.796875 9.571875 C 43.769531 9.689062 43.746094 9.80625 43.726562 9.927344 C 43.703125 10.044531 43.6875 10.165625 43.675781 10.290625 C 43.660156 10.411719 43.648438 10.536719 43.640625 10.661719 C 43.636719 10.786719 43.632812 10.911719 43.632812 11.036719 C 43.628906 11.165625 43.632812 11.294531 43.640625 11.423437 C 43.644531 11.548437 43.65625 11.68125 43.667969 11.810156 C 43.683594 11.939062 43.699219 12.071875 43.71875 12.200781 C 43.742188 12.333594 43.765625 12.466406 43.792969 12.595312 C 43.820312 12.728125 43.851562 12.860937 43.886719 12.99375 C 43.921875 13.126562 43.960938 13.259375 44 13.392187 C 44.042969 13.525 44.089844 13.657812 44.136719 13.790625 C 44.1875 13.923437 44.238281 14.05625 44.296875 14.185156 C 44.351562 14.317969 44.410156 14.450781 44.472656 14.583594 C 44.535156 14.7125 44.605469 14.845312 44.675781 14.974219 C 44.746094 15.103125 44.820312 15.235937 44.894531 15.364844 C 44.972656 15.489844 45.054688 15.61875 45.136719 15.747656 C 45.222656 15.872656 45.308594 16.001562 45.402344 16.126562 C 45.492188 16.251562 45.585938 16.372656 45.683594 16.497656 C 45.78125 16.61875 45.882812 16.739844 45.988281 16.860937 C 46.09375 16.978125 46.199219 17.099219 46.308594 17.216406 C 46.421875 17.333594 46.535156 17.450781 46.652344 17.564062 C 46.769531 17.677344 46.890625 17.790625 47.011719 17.9 C 47.136719 18.009375 47.261719 18.11875 47.390625 18.224219 C 47.519531 18.333594 47.648438 18.435156 47.785156 18.540625 C 47.917969 18.642187 48.054688 18.74375 48.195312 18.841406 C 48.335938 18.939062 48.480469 19.036719 48.625 19.130469 C 48.769531 19.224219 48.917969 19.314062 49.066406 19.403906 C 49.21875 19.49375 49.367188 19.579687 49.523438 19.665625 C 49.679688 19.747656 49.835938 19.829687 49.996094 19.907812 C 50.152344 19.989844 50.316406 20.064062 50.476562 20.138281 C 50.640625 20.2125 50.808594 20.282812 50.972656 20.349219 C 51.140625 20.419531 51.308594 20.485937 51.480469 20.548437 C 51.652344 20.610937 51.824219 20.669531 51.996094 20.724219 C 52.171875 20.782812 52.347656 20.8375 52.523438 20.888281 C 52.699219 20.939062 52.878906 20.985937 53.058594 21.028906 C 53.238281 21.075781 53.417969 21.11875 53.597656 21.153906 C 53.78125 21.192969 53.964844 21.228125 54.148438 21.259375 C 54.328125 21.294531 54.515625 21.321875 54.699219 21.349219 C 54.882812 21.372656 55.070312 21.396094 55.257812 21.415625 C 55.441406 21.435156 55.628906 21.450781 55.816406 21.4625 C 56.003906 21.478125 56.191406 21.485937 56.378906 21.49375 C 56.566406 21.497656 56.753906 21.501562 56.941406 21.501562 C 57.128906 21.501562 57.316406 21.497656 57.503906 21.49375 C 57.691406 21.485937 57.878906 21.474219 58.066406 21.4625 C 58.253906 21.450781 58.441406 21.43125 58.628906 21.411719 C 58.8125 21.392187 59 21.36875 59.183594 21.345312 C 59.367188 21.317969 59.554688 21.290625 59.738281 21.255469 C 59.921875 21.224219 60.101562 21.189062 60.285156 21.15 C 60.464844 21.110937 60.644531 21.067969 60.824219 21.025 C 61.003906 20.978125 61.183594 20.93125 61.359375 20.880469 C 61.535156 20.829687 61.710938 20.775 61.886719 20.716406 C 62.058594 20.661719 62.230469 20.599219 62.402344 20.536719 C 62.570312 20.474219 62.738281 20.407812 62.90625 20.341406 C 63.074219 20.271094 63.238281 20.200781 63.402344 20.126562 C 63.566406 20.052344 63.726562 19.974219 63.886719 19.896094 C 64.042969 19.817969 64.199219 19.735937 64.355469 19.65 C 64.511719 19.567969 64.660156 19.478125 64.8125 19.388281 C 64.960938 19.302344 65.109375 19.208594 65.253906 19.114844 C 65.398438 19.021094 65.539062 18.923437 65.679688 18.825781 C 65.820312 18.728125 65.957031 18.626562 66.09375 18.521094 C 66.226562 18.419531 66.355469 18.314062 66.484375 18.208594 C 66.613281 18.103125 66.738281 17.99375 66.863281 17.880469 C 66.984375 17.771094 67.105469 17.657812 67.222656 17.544531 C 67.339844 17.43125 67.453125 17.314062 67.5625 17.196875 C 67.671875 17.079687 67.78125 16.9625 67.882812 16.841406 C 67.988281 16.720312 68.089844 16.599219 68.1875 16.478125 C 68.28125 16.353125 68.378906 16.232031 68.46875 16.107031 C 68.558594 15.982031 68.644531 15.853125 68.730469 15.728125 C 68.8125 15.599219 68.894531 15.470312 68.972656 15.341406 C 69.046875 15.2125 69.121094 15.083594 69.191406 14.954687 C 69.261719 14.825781 69.328125 14.692969 69.390625 14.560156 C 69.453125 14.43125 69.511719 14.298437 69.570312 14.165625 C 69.625 14.032812 69.675781 13.903906 69.726562 13.767187 C 69.773438 13.638281 69.820312 13.505469 69.859375 13.372656 C 69.902344 13.239844 69.941406 13.107031 69.976562 12.974219 C 70.007812 12.841406 70.039062 12.708594 70.066406 12.575781 C 70.09375 12.446875 70.117188 12.314062 70.136719 12.18125 C 70.160156 12.052344 70.175781 11.919531 70.1875 11.790625 C 70.199219 11.661719 70.210938 11.528906 70.21875 11.403906 C 70.222656 11.275 70.226562 11.146094 70.226562 11.017187 C 70.222656 10.892187 70.21875 10.767187 70.210938 10.642187 C 70.203125 10.517187 70.195312 10.392187 70.179688 10.271094 C 70.164062 10.15 70.148438 10.028906 70.128906 9.907812 C 70.105469 9.786719 70.082031 9.669531 70.054688 9.552344 C 70.027344 9.435156 69.996094 9.321875 69.964844 9.208594 C 69.929688 9.095312 69.894531 8.982031 69.855469 8.872656 C 69.816406 8.763281 69.773438 8.653906 69.726562 8.548437 C 69.683594 8.442969 69.632812 8.3375 69.582031 8.235937 C 69.53125 8.134375 69.480469 8.036719 69.421875 7.939062 C 69.367188 7.841406 69.308594 7.74375 69.246094 7.65 C 69.183594 7.55625 69.121094 7.466406 69.054688 7.376562 C 68.988281 7.290625 68.917969 7.204687 68.847656 7.11875 C 68.777344 7.036719 68.703125 6.954687 68.628906 6.876562 C 68.554688 6.798437 68.476562 6.724219 68.398438 6.65 C 68.316406 6.579687 68.234375 6.509375 68.152344 6.439062 C 68.070312 6.372656 67.984375 6.310156 67.898438 6.247656 C 67.8125 6.185156 67.722656 6.126562 67.632812 6.071875 C 67.542969 6.013281 67.453125 5.9625 67.359375 5.911719 C 67.265625 5.860937 67.171875 5.814062 67.078125 5.771094 C 66.980469 5.728125 66.886719 5.685156 66.789062 5.65 C 66.691406 5.610937 66.59375 5.575781 66.492188 5.544531 C 66.394531 5.513281 66.292969 5.485937 66.191406 5.4625 C 66.09375 5.439062 65.988281 5.415625 65.886719 5.396094 C 65.785156 5.380469 65.683594 5.364844 65.582031 5.353125 C 65.480469 5.341406 65.375 5.329687 65.273438 5.325781 C 65.167969 5.321875 65.066406 5.317969 64.960938 5.317969 C 64.859375 5.321875 64.753906 5.325781 64.652344 5.333594 C 64.550781 5.341406 64.445312 5.349219 64.34375 5.364844 C 64.242188 5.380469 64.140625 5.396094 64.035156 5.415625 C 63.9375 5.439062 63.835938 5.4625 63.734375 5.489844 C 63.632812 5.517187 63.535156 5.544531 63.4375 5.579687 C 63.335938 5.610937 63.238281 5.65 63.144531 5.689062 C 63.046875 5.728125 62.949219 5.771094 62.855469 5.817969 C 62.761719 5.864844 62.667969 5.911719 62.578125 5.9625 C 62.484375 6.017187 62.394531 6.071875 62.304688 6.130469 C 62.21875 6.185156 62.128906 6.247656 62.042969 6.310156 C 61.960938 6.376562 61.875 6.442969 61.792969 6.509375 C 61.710938 6.579687 61.632812 6.653906 61.554688 6.728125 C 61.476562 6.802344 61.398438 6.880469 61.324219 6.958594 C 61.25 7.040625 61.179688 7.122656 61.109375 7.208594 C 61.039062 7.294531 60.972656 7.380469 60.910156 7.470312 C 60.84375 7.560156 60.78125 7.653906 60.722656 7.747656 C 60.664062 7.841406 60.605469 7.939062 60.550781 8.040625 C 60.496094 8.138281 60.445312 8.239844 60.394531 8.341406 C 60.347656 8.446875 60.300781 8.552344 60.257812 8.657812 C 60.214844 8.767187 60.175781 8.876562 60.136719 8.985937 C 60.101562 9.099219 60.066406 9.2125 60.035156 9.325781 C 60.003906 9.439062 59.972656 9.55625 59.949219 9.673437 C 59.925781 9.790625 59.902344 9.911719 59.882812 10.032812 C 59.867188 10.153906 59.851562 10.275 59.839844 10.396094 C 59.824219 10.521094 59.816406 10.646094 59.8125 10.771094 C 59.808594 10.896094 59.804688 11.021094 59.808594 11.15 C 59.808594 11.278906 59.8125 11.407812 59.820312 11.536719 C 59.828125 11.665625 59.84375 11.794531 59.859375 11.923437 C 59.871094 12.05625 59.890625 12.185156 59.914062 12.317969 C 59.9375 12.450781 59.964844 12.579687 59.992188 12.7125 C 60.023438 12.845312 60.054688 12.978125 60.09375 13.110937 C 60.128906 13.24375 60.171875 13.376562 60.214844 13.509375 C 60.257812 13.642187 60.304688 13.775 60.355469 13.907812 C 60.40625 14.036719 60.460938 14.169531 60.519531 14.302344 C 60.578125 14.435156 60.640625 14.564062 60.707031 14.696875 C 60.769531 14.829687 60.839844 14.958594 60.914062 15.0875 C 60.984375 15.216406 61.0625 15.345312 61.140625 15.474219 C 61.21875 15.603125 61.304688 15.732031 61.390625 15.857031 C 61.476562 15.985937 61.566406 16.110937 61.65625 16.235937 C 61.75 16.360937 61.847656 16.482031 61.945312 16.603125 C 62.046875 16.724219 62.148438 16.845312 62.257812 16.966406 C 62.363281 17.083594 62.472656 17.204687 62.585938 17.317969 C 62.695312 17.435156 62.8125 17.548437 62.929688 17.661719 C 63.050781 17.775 63.171875 17.888281 63.296875 17.997656 C 63.421875 18.103125 63.546875 18.2125 63.679688 18.317969 C 63.808594 18.423437 63.941406 18.528906 64.078125 18.630469 C 64.214844 18.728125 64.355469 18.829687 64.496094 18.927344 C 64.636719 19.025 64.78125 19.11875 64.925781 19.2125 C 65.074219 19.302344 65.222656 19.392187 65.375 19.482031 C 65.527344 19.567969 65.679688 19.653906 65.835938 19.735937 C 65.992188 19.821875 66.148438 19.9 66.3125 19.978125 C 66.472656 20.05625 66.632812 20.130469 66.796875 20.200781 C 66.960938 20.275 67.128906 20.345312 67.296875 20.411719 C 67.464844 20.478125 67.636719 20.540625 67.808594 20.599219 C 67.976562 20.661719 68.152344 20.720312 68.324219 20.775 C 68.5 20.829687 68.675781 20.880469 68.855469 20.93125 C 69.03125 20.978125 69.210938 21.025 69.390625 21.067969 C 69.570312 21.110937 69.753906 21.153906 69.933594 21.189062 C 70.117188 21.224219 70.300781 21.259375 70.484375 21.290625 C 70.667969 21.317969 70.851562 21.345312 71.039062 21.36875 C 71.222656 21.392187 71.410156 21.415625 71.597656 21.43125 C 71.78125 21.450781 71.96875 21.4625 72.15625 21.474219 C 72.34375 21.485937 72.53125 21.49375 72.71875 21.497656 C 72.90625 21.501562 73.09375 21.501562 73.28125 21.501562 C 73.46875 21.497656 73.65625 21.49375 73.847656 21.485937 C 74.03125 21.478125 74.21875 21.466406 74.40625 21.450781 C 74.59375 21.435156 74.78125 21.415625 74.96875 21.396094 C 75.152344 21.372656 75.339844 21.349219 75.523438 21.321875 C 75.707031 21.290625 75.890625 21.259375 76.074219 21.228125 C 76.257812 21.192969 76.4375 21.153906 76.617188 21.114844 C 76.800781 21.075781 76.980469 21.028906 77.15625 20.982031 C 77.335938 20.935156 77.515625 20.888281 77.6875 20.833594 C 77.863281 20.782812 78.039062 20.724219 78.210938 20.665625 C 78.386719 20.607031 78.554688 20.544531 78.726562 20.482031 C 78.894531 20.415625 79.0625 20.349219 79.230469 20.278906 C 79.394531 20.208594 79.558594 20.138281 79.71875 20.060156 C 79.882812 19.985937 80.042969 19.907812 80.199219 19.825781 C 80.355469 19.747656 80.511719 19.661719 80.664062 19.575781 C 80.820312 19.489844 80.96875 19.403906 81.117188 19.310156 C 81.265625 19.220312 81.414062 19.126562 81.554688 19.032812 C 81.699219 18.935156 81.839844 18.8375 81.976562 18.739844 C 82.117188 18.638281 82.253906 18.536719 82.382812 18.43125 C 82.515625 18.329687 82.648438 18.220312 82.773438 18.114844 C 82.898438 18.005469 83.023438 17.896094 83.144531 17.786719 C 83.265625 17.673437 83.382812 17.560156 83.5 17.446875 C 83.613281 17.329687 83.726562 17.2125 83.835938 17.095312 C 83.941406 16.978125 84.046875 16.857031 84.148438 16.735937 C 84.253906 16.614844 84.351562 16.49375 84.445312 16.36875 C 84.539062 16.247656 84.632812 16.122656 84.722656 15.99375 C 84.8125 15.86875 84.894531 15.74375 84.976562 15.614844 C 85.058594 15.485937 85.140625 15.360937 85.214844 15.228125 C 85.289062 15.099219 85.359375 14.970312 85.429688 14.841406 C 85.496094 14.708594 85.558594 14.579687 85.621094 14.446875 C 85.683594 14.314062 85.738281 14.18125 85.792969 14.048437 C 85.847656 13.919531 85.898438 13.786719 85.941406 13.653906 C 85.988281 13.521094 86.03125 13.388281 86.070312 13.255469 C 86.113281 13.122656 86.148438 12.989844 86.179688 12.857031 C 86.210938 12.724219 86.242188 12.591406 86.265625 12.4625 C 86.289062 12.329687 86.3125 12.196875 86.332031 12.067969 C 86.347656 11.935156 86.363281 11.80625 86.375 11.677344 C 86.386719 11.544531 86.394531 11.415625 86.398438 11.290625 C 86.402344 11.161719 86.402344 11.032812 86.398438 10.907812 C 86.394531 10.782812 86.390625 10.657812 86.378906 10.532812 C 86.371094 10.407812 86.355469 10.286719 86.339844 10.165625 C 86.324219 10.040625 86.304688 9.923437 86.28125 9.802344 C 86.261719 9.685156 86.234375 9.567969 86.203125 9.450781 C 86.175781 9.3375 86.144531 9.220312 86.109375 9.110937 C 86.074219 8.997656 86.035156 8.884375 85.996094 8.778906 C 85.953125 8.669531 85.910156 8.560156 85.863281 8.454687 C 85.816406 8.353125 85.765625 8.247656 85.714844 8.146094 C 85.660156 8.048437 85.605469 7.946875 85.546875 7.853125 C 85.488281 7.755469 85.429688 7.661719 85.367188 7.567969 C 85.304688 7.478125 85.238281 7.388281 85.171875 7.302344 C 85.101562 7.2125 85.03125 7.130469 84.960938 7.048437 C 84.890625 6.966406 84.8125 6.884375 84.738281 6.810156 C 84.660156 6.732031 84.582031 6.657812 84.503906 6.5875 C 84.421875 6.517187 84.339844 6.446875 84.253906 6.380469 C 84.171875 6.317969 84.085938 6.251562 83.996094 6.192969 C 83.910156 6.134375 83.820312 6.075781 83.730469 6.021094 C 83.636719 5.966406 83.546875 5.915625 83.453125 5.86875 C 83.359375 5.821875 83.265625 5.775 83.167969 5.732031 C 83.074219 5.692969 82.976562 5.653906 82.878906 5.61875 C 82.78125 5.579687 82.679688 5.548437 82.582031 5.521094 C 82.480469 5.489844 82.382812 5.4625 82.277344 5.439062 C 82.179688 5.419531 82.074219 5.4 81.972656 5.380469 C 81.871094 5.364844 81.769531 5.353125 81.664062 5.341406 C 81.5625 5.333594 81.460938 5.325781 81.355469 5.321875 C 81.253906 5.317969 81.148438 5.317969 81.046875 5.321875 C 80.945312 5.325781 80.839844 5.329687 80.738281 5.341406 C 80.632812 5.349219 80.53125 5.360937 80.429688 5.376562 C 80.328125 5.396094 80.226562 5.415625 80.125 5.435156 C 80.023438 5.458594 79.921875 5.485937 79.820312 5.513281 C 79.722656 5.540625 79.621094 5.575781 79.523438 5.610937 C 79.425781 5.646094 79.328125 5.685156 79.234375 5.724219 C 79.136719 5.767187 79.042969 5.810156 78.949219 5.857031 C 78.855469 5.907812 78.761719 5.958594 78.671875 6.009375 C 78.582031 6.064062 78.492188 6.122656 78.402344 6.18125 C 78.316406 6.239844 78.230469 6.302344 78.144531 6.36875 C 78.0625 6.435156 77.976562 6.501562 77.898438 6.571875 C 77.816406 6.642187 77.738281 6.716406 77.660156 6.794531 C 77.585938 6.86875 77.507812 6.950781 77.4375 7.028906 C 77.363281 7.110937 77.292969 7.196875 77.226562 7.282812 C 77.15625 7.36875 77.09375 7.458594 77.027344 7.548437 C 76.964844 7.642187 76.902344 7.735937 76.847656 7.833594 C 76.789062 7.927344 76.734375 8.025 76.679688 8.126562 C 76.628906 8.228125 76.578125 8.329687 76.527344 8.435156 C 76.480469 8.540625 76.4375 8.646094 76.394531 8.755469 C 76.355469 8.864844 76.316406 8.974219 76.28125 9.083594 C 76.246094 9.196875 76.210938 9.310156 76.183594 9.427344 C 76.152344 9.544531 76.128906 9.661719 76.105469 9.778906 C 76.082031 9.896094 76.0625 10.017187 76.042969 10.138281 C 76.027344 10.259375 76.015625 10.380469 76.003906 10.505469 C 75.992188 10.630469 75.988281 10.755469 75.984375 10.880469 C 75.980469 11.005469 75.980469 11.134375 75.984375 11.263281 C 75.988281 11.388281 75.996094 11.517187 76.007812 11.65 C 76.015625 11.778906 76.03125 11.907812 76.046875 12.040625 C 76.066406 12.169531 76.085938 12.302344 76.109375 12.43125 C 76.136719 12.564062 76.164062 12.696875 76.195312 12.829687 C 76.226562 12.9625 76.261719 13.095312 76.300781 13.228125 C 76.339844 13.360937 76.382812 13.49375 76.429688 13.626562 C 76.476562 13.755469 76.523438 13.888281 76.578125 14.021094 C 76.632812 14.153906 76.6875 14.286719 76.746094 14.419531 C 76.808594 14.548437 76.871094 14.68125 76.941406 14.810156 C 77.007812 14.942969 77.078125 15.071875 77.152344 15.200781 C 77.226562 15.333594 77.304688 15.458594 77.386719 15.5875 C 77.46875 15.716406 77.554688 15.841406 77.640625 15.970312 C 77.730469 16.095312 77.820312 16.220312 77.914062 16.341406 C 78.011719 16.466406 78.109375 16.591406 78.210938 16.7125 C 78.3125 16.833594 78.417969 16.950781 78.523438 17.071875 C 78.632812 17.189062 78.746094 17.30625 78.859375 17.419531 C 78.972656 17.536719 79.089844 17.65 79.210938 17.759375 C 79.332031 17.872656 79.453125 17.982031 79.582031 18.091406 C 79.707031 18.200781 79.839844 18.30625 79.96875 18.411719 C 80.101562 18.513281 80.238281 18.61875 80.375 18.716406 C 80.511719 18.817969 80.652344 18.915625 80.796875 19.009375 C 80.9375 19.107031 81.085938 19.200781 81.230469 19.290625 C 81.378906 19.384375 81.53125 19.470312 81.683594 19.55625 C 81.835938 19.642187 81.992188 19.728125 82.148438 19.810156 C 82.304688 19.892187 82.464844 19.970312 82.628906 20.044531 C 82.789062 20.122656 82.953125 20.192969 83.117188 20.263281 C 83.285156 20.333594 83.449219 20.403906 83.621094 20.466406 C 83.789062 20.532812 83.960938 20.595312 84.132812 20.653906 C 84.304688 20.7125 84.480469 20.771094 84.65625 20.821875 C 84.832031 20.876562 85.007812 20.927344 85.1875 20.974219 C 85.363281 21.021094 85.542969 21.064062 85.726562 21.107031 C 85.90625 21.146094 86.085938 21.185156 86.269531 21.220312 C 86.453125 21.255469 86.636719 21.286719 86.820312 21.314062 C 87.003906 21.341406 87.191406 21.36875 87.375 21.388281 C 87.5625 21.411719 87.75 21.427344 87.933594 21.446875 " transform="matrix(1,0,0,-1,0,28.4)"/>
</g>
</svg>
