<?xml version="1.0" encoding="UTF-8"?>
<svg xmlns="http://www.w3.org/2000/svg" xmlns:xlink="http://www.w3.org/1999/xlink" width="141.6pt" height="141.6pt" viewBox="0 0 141.6 141.6" version="1.1">
<g id="surface1">
<path style="fill:none;stroke-width:2.5;stroke-linecap:round;stroke-linejoin:round;stroke:rgb(0%,0%,0%);stroke-opacity:1;stroke-miterlimit:10;" d="M 118.460938 70.275781 C 118.511719 69.900781 118.511719 69.514062 118.621094 69.154687 C 118.730469 68.791406 118.898438 68.428125 119.121094 68.096094 C 119.328125 67.767969 119.601562 67.451562 119.921875 67.174219 C 120.230469 66.900781 120.589844 66.646875 120.988281 66.44375 C 121.390625 66.240625 121.828125 66.06875 122.289062 65.951562 C 122.761719 65.838281 123.261719 65.764062 123.78125 65.748437 C 124.289062 65.732812 124.828125 65.767969 125.371094 65.861719 C 125.921875 65.955469 126.480469 66.1 127.03125 66.307031 C 127.570312 66.510156 128.128906 66.771875 128.660156 67.088281 C 129.191406 67.404687 129.71875 67.779687 130.210938 68.201562 C 130.710938 68.623437 131.179688 69.103906 131.621094 69.623437 C 132.050781 70.142969 132.460938 70.713281 132.820312 71.31875 C 133.179688 71.920312 133.5 72.56875 133.769531 73.240625 C 134.03125 73.908594 134.25 74.619531 134.410156 75.334375 C 134.578125 76.053125 134.691406 76.799219 134.738281 77.545312 C 134.789062 78.291406 134.789062 79.053125 134.71875 79.803125 C 134.660156 80.549219 134.539062 81.307031 134.359375 82.0375 C 134.191406 82.767969 133.949219 83.494531 133.671875 84.185937 C 133.378906 84.877344 133.039062 85.553125 132.660156 86.182031 C 132.28125 86.814844 131.851562 87.416406 131.390625 87.971094 C 130.921875 88.525781 130.410156 89.041406 129.878906 89.502344 C 129.351562 89.963281 128.78125 90.377344 128.210938 90.736719 C 127.628906 91.092187 127.019531 91.400781 126.421875 91.646875 C 125.820312 91.892969 125.199219 92.084375 124.589844 92.217187 C 123.980469 92.353906 123.371094 92.428125 122.78125 92.451562 C 122.199219 92.475 121.621094 92.439844 121.070312 92.357812 C 120.519531 92.275781 119.988281 92.139062 119.511719 91.963281 C 119.019531 91.7875 118.558594 91.560937 118.160156 91.307031 C 117.75 91.053125 117.378906 90.752344 117.058594 90.435937 C 116.75 90.115625 116.480469 89.760156 116.261719 89.400781 C 116.050781 89.041406 115.890625 88.654687 115.78125 88.271875 C 115.679688 87.892969 115.628906 87.494531 115.640625 87.115625 C 115.640625 86.736719 115.710938 86.35 115.820312 85.994531 C 115.929688 85.639062 116.109375 85.2875 116.320312 84.978906 C 116.539062 84.666406 116.808594 84.373437 117.109375 84.127344 C 117.421875 83.877344 117.769531 83.6625 118.148438 83.494531 C 118.53125 83.330469 118.960938 83.201562 119.390625 83.13125 C 119.828125 83.060937 120.300781 83.0375 120.78125 83.06875 C 121.25 83.103906 121.75 83.189844 122.238281 83.334375 C 122.730469 83.478906 123.238281 83.682031 123.71875 83.935937 C 124.199219 84.19375 124.691406 84.50625 125.140625 84.869531 C 125.601562 85.236719 126.039062 85.658594 126.449219 86.123437 C 126.851562 86.588281 127.230469 87.107812 127.570312 87.658594 C 127.898438 88.213281 128.210938 88.81875 128.460938 89.44375 C 128.699219 90.072656 128.910156 90.744531 129.058594 91.424219 C 129.210938 92.107812 129.308594 92.826562 129.351562 93.545312 C 129.398438 94.264062 129.378906 95.002344 129.308594 95.736719 C 129.238281 96.467187 129.109375 97.209375 128.929688 97.932031 C 128.738281 98.654687 128.488281 99.377344 128.199219 100.06875 C 127.898438 100.760156 127.550781 101.439844 127.148438 102.080469 C 126.761719 102.709375 126.300781 103.330469 125.820312 103.900781 C 125.328125 104.459375 124.800781 104.998437 124.238281 105.478906 C 123.679688 105.959375 123.070312 106.400781 122.460938 106.779687 C 121.839844 107.158594 121.191406 107.490625 120.550781 107.760156 C 119.898438 108.029687 119.21875 108.248437 118.558594 108.400781 C 117.898438 108.560937 117.230469 108.658594 116.570312 108.709375 C 115.921875 108.760156 115.269531 108.740625 114.648438 108.678125 C 114.03125 108.619531 113.421875 108.498437 112.859375 108.330469 C 112.289062 108.170312 111.75 107.959375 111.25 107.709375 C 110.75 107.459375 110.289062 107.158594 109.878906 106.838281 C 109.46875 106.521875 109.109375 106.158594 108.800781 105.791406 C 108.488281 105.420312 108.230469 105.021875 108.019531 104.619531 C 107.820312 104.221094 107.671875 103.791406 107.578125 103.38125 C 107.488281 102.971094 107.449219 102.549219 107.46875 102.158594 C 107.488281 101.760156 107.558594 101.369531 107.679688 101.010156 C 107.808594 100.650781 107.980469 100.299219 108.199219 99.994531 C 108.421875 99.689844 108.691406 99.408594 108.988281 99.178125 C 109.289062 98.947656 109.628906 98.752344 110 98.611719 C 110.359375 98.471094 110.769531 98.373437 111.179688 98.330469 C 111.589844 98.291406 112.03125 98.299219 112.46875 98.369531 C 112.898438 98.435937 113.359375 98.560937 113.800781 98.736719 C 114.230469 98.916406 114.679688 99.150781 115.101562 99.439844 C 115.519531 99.728906 115.929688 100.080469 116.308594 100.471094 C 116.691406 100.861719 117.050781 101.310937 117.371094 101.791406 C 117.679688 102.279687 117.96875 102.81875 118.210938 103.38125 C 118.449219 103.951562 118.648438 104.560937 118.789062 105.189844 C 118.929688 105.81875 119.03125 106.478906 119.070312 107.158594 C 119.109375 107.830469 119.101562 108.529687 119.019531 109.221094 C 118.949219 109.920312 118.820312 110.63125 118.640625 111.31875 C 118.449219 112.021875 118.210938 112.709375 117.910156 113.38125 C 117.609375 114.060937 117.25 114.721094 116.851562 115.35 C 116.449219 115.971094 115.988281 116.580469 115.488281 117.139062 C 114.988281 117.709375 114.441406 118.240625 113.871094 118.721094 C 113.289062 119.201562 112.671875 119.639062 112.03125 120.029687 C 111.390625 120.420312 110.710938 120.748437 110.019531 121.029687 C 109.339844 121.310937 108.628906 121.541406 107.929688 121.709375 C 107.21875 121.88125 106.5 121.990625 105.800781 122.041406 C 105.089844 122.088281 104.390625 122.088281 103.710938 122.029687 C 103.03125 121.971094 102.351562 121.861719 101.71875 121.701562 C 101.078125 121.529687 100.46875 121.31875 99.894531 121.060937 C 99.324219 120.810937 98.78125 120.498437 98.292969 120.170312 C 97.804688 119.838281 97.351562 119.459375 96.957031 119.06875 C 96.5625 118.670312 96.214844 118.248437 95.921875 117.810937 C 95.632812 117.38125 95.394531 116.920312 95.214844 116.471094 C 95.035156 116.021875 94.910156 115.549219 94.839844 115.111719 C 94.769531 114.658594 94.761719 114.209375 94.796875 113.791406 C 94.835938 113.369531 94.933594 112.959375 95.070312 112.580469 C 95.210938 112.209375 95.402344 111.861719 95.628906 111.549219 C 95.855469 111.248437 96.132812 110.971094 96.433594 110.748437 C 96.734375 110.521875 97.074219 110.338281 97.429688 110.209375 C 97.785156 110.080469 98.175781 109.998437 98.5625 109.978906 C 98.953125 109.959375 99.367188 109.990625 99.769531 110.06875 C 100.171875 110.158594 100.578125 110.310937 100.980469 110.498437 C 101.371094 110.701562 101.761719 110.959375 102.121094 111.260156 C 102.480469 111.56875 102.828125 111.928125 103.140625 112.330469 C 103.441406 112.728906 103.730469 113.189844 103.960938 113.678125 C 104.199219 114.158594 104.398438 114.701562 104.550781 115.260156 C 104.699219 115.81875 104.800781 116.420312 104.851562 117.029687 C 104.898438 117.639062 104.898438 118.279687 104.839844 118.920312 C 104.78125 119.560937 104.660156 120.221094 104.488281 120.869531 C 104.320312 121.521875 104.078125 122.170312 103.800781 122.810937 C 103.511719 123.439844 103.171875 124.080469 102.769531 124.678125 C 102.378906 125.271875 101.929688 125.861719 101.429688 126.400781 C 100.941406 126.951562 100.390625 127.459375 99.816406 127.928125 C 99.234375 128.400781 98.609375 128.830469 97.960938 129.209375 C 97.3125 129.588281 96.621094 129.920312 95.921875 130.189844 C 95.222656 130.471094 94.492188 130.689844 93.761719 130.861719 C 93.03125 131.021875 92.28125 131.13125 91.542969 131.178125 C 90.804688 131.228906 90.058594 131.221094 89.335938 131.158594 C 88.613281 131.1 87.894531 130.978906 87.207031 130.810937 C 86.523438 130.639062 85.851562 130.408594 85.222656 130.139062 C 84.59375 129.869531 83.988281 129.549219 83.433594 129.189844 C 82.878906 128.838281 82.359375 128.439844 81.898438 128.021875 C 81.433594 127.588281 81.011719 127.13125 80.648438 126.658594 C 80.285156 126.189844 79.976562 125.689844 79.722656 125.189844 C 79.46875 124.689844 79.269531 124.178125 79.125 123.670312 C 78.984375 123.170312 78.898438 122.650781 78.867188 122.170312 C 78.835938 121.678125 78.863281 121.201562 78.9375 120.748437 C 79.007812 120.299219 79.136719 119.869531 79.304688 119.478906 C 79.472656 119.088281 79.691406 118.721094 79.9375 118.408594 C 80.183594 118.1 80.476562 117.81875 80.789062 117.588281 C 81.097656 117.369531 81.445312 117.189844 81.800781 117.06875 C 82.15625 116.951562 82.535156 116.88125 82.914062 116.869531 C 83.289062 116.85 83.683594 116.889062 84.058594 116.990625 C 84.4375 117.088281 84.820312 117.240625 85.171875 117.451562 C 85.527344 117.658594 85.875 117.920312 86.183594 118.228906 C 86.496094 118.541406 86.789062 118.900781 87.035156 119.299219 C 87.28125 119.701562 87.5 120.150781 87.664062 120.619531 C 87.832031 121.1 87.960938 121.619531 88.03125 122.150781 C 88.101562 122.689844 88.128906 123.260156 88.09375 123.830469 C 88.058594 124.400781 87.972656 124.998437 87.828125 125.6 C 87.683594 126.189844 87.484375 126.791406 87.226562 127.38125 C 86.96875 127.971094 86.652344 128.560937 86.285156 129.119531 C 85.917969 129.678125 85.492188 130.228906 85.023438 130.740625 C 84.554688 131.248437 84.027344 131.740625 83.464844 132.189844 C 82.90625 132.63125 82.292969 133.041406 81.65625 133.400781 C 81.015625 133.760156 80.335938 134.080469 79.640625 134.338281 C 78.945312 134.611719 78.210938 134.81875 77.476562 134.971094 C 76.742188 135.13125 75.984375 135.228906 75.234375 135.271875 C 74.484375 135.310937 73.71875 135.291406 72.972656 135.221094 C 72.226562 135.139062 71.480469 135.010156 70.765625 134.830469 C 70.046875 134.639062 69.339844 134.400781 68.675781 134.111719 C 68.007812 133.81875 67.359375 133.478906 66.761719 133.1 C 66.160156 132.728906 65.59375 132.299219 65.078125 131.838281 C 64.566406 131.389062 64.09375 130.889062 63.675781 130.38125 C 63.261719 129.869531 62.890625 129.31875 62.582031 128.779687 C 62.273438 128.228906 62.015625 127.658594 61.820312 127.088281 C 61.621094 126.529687 61.480469 125.951562 61.394531 125.400781 C 61.308594 124.838281 61.28125 124.291406 61.304688 123.760156 C 61.324219 123.240625 61.40625 122.721094 61.527344 122.248437 C 61.648438 121.771875 61.824219 121.31875 62.03125 120.908594 C 62.242188 120.498437 62.5 120.13125 62.78125 119.810937 C 63.058594 119.490625 63.382812 119.209375 63.714844 118.978906 C 64.046875 118.760156 64.410156 118.588281 64.777344 118.471094 C 65.140625 118.35 65.527344 118.291406 65.902344 118.279687 C 66.277344 118.271875 66.664062 118.31875 67.023438 118.420312 C 67.386719 118.529687 67.746094 118.689844 68.074219 118.889062 C 68.402344 119.1 68.71875 119.361719 68.992188 119.670312 C 69.261719 119.971094 69.511719 120.330469 69.710938 120.709375 C 69.910156 121.1 70.074219 121.529687 70.1875 121.990625 C 70.296875 122.439844 70.363281 122.928125 70.375 123.428125 C 70.386719 123.939844 70.34375 124.471094 70.246094 124.990625 C 70.148438 125.521875 69.992188 126.06875 69.785156 126.6 C 69.574219 127.139062 69.304688 127.678125 68.984375 128.189844 C 68.660156 128.709375 68.28125 129.221094 67.855469 129.689844 C 67.429688 130.170312 66.945312 130.63125 66.421875 131.041406 C 65.898438 131.459375 65.324219 131.85 64.71875 132.178125 C 64.113281 132.521875 63.460938 132.81875 62.789062 133.06875 C 62.117188 133.310937 61.40625 133.510156 60.691406 133.650781 C 59.972656 133.791406 59.226562 133.88125 58.484375 133.908594 C 57.742188 133.939844 56.980469 133.908594 56.234375 133.81875 C 55.492188 133.740625 54.738281 133.6 54.011719 133.400781 C 53.289062 133.201562 52.566406 132.939844 51.882812 132.639062 C 51.199219 132.330469 50.53125 131.971094 49.90625 131.56875 C 49.285156 131.170312 48.691406 130.721094 48.144531 130.228906 C 47.601562 129.748437 47.09375 129.221094 46.644531 128.670312 C 46.195312 128.13125 45.789062 127.541406 45.441406 126.951562 C 45.097656 126.35 44.800781 125.728906 44.566406 125.111719 C 44.328125 124.490625 44.152344 123.861719 44.027344 123.240625 C 43.90625 122.619531 43.839844 121.990625 43.828125 121.389062 C 43.816406 120.799219 43.863281 120.201562 43.957031 119.650781 C 44.050781 119.088281 44.195312 118.549219 44.382812 118.049219 C 44.566406 117.560937 44.804688 117.088281 45.070312 116.678125 C 45.335938 116.260156 45.644531 115.88125 45.96875 115.560937 C 46.296875 115.228906 46.65625 114.959375 47.023438 114.740625 C 47.390625 114.521875 47.785156 114.35 48.171875 114.240625 C 48.558594 114.13125 48.960938 114.06875 49.347656 114.06875 C 49.730469 114.06875 50.117188 114.13125 50.476562 114.228906 C 50.835938 114.338281 51.1875 114.510156 51.503906 114.709375 C 51.816406 114.920312 52.109375 115.178125 52.355469 115.478906 C 52.605469 115.779687 52.824219 116.119531 52.988281 116.498437 C 53.152344 116.869531 53.28125 117.279687 53.351562 117.709375 C 53.421875 118.139062 53.441406 118.6 53.40625 119.060937 C 53.371094 119.521875 53.285156 120.010156 53.140625 120.490625 C 52.992188 120.959375 52.792969 121.451562 52.535156 121.920312 C 52.277344 122.389062 51.964844 122.861719 51.597656 123.299219 C 51.234375 123.740625 50.8125 124.170312 50.347656 124.549219 C 49.882812 124.939844 49.363281 125.299219 48.808594 125.619531 C 48.257812 125.939844 47.65625 126.221094 47.03125 126.451562 C 46.40625 126.678125 45.738281 126.869531 45.058594 126.998437 C 44.378906 127.13125 43.667969 127.209375 42.957031 127.228906 C 42.242188 127.248437 41.507812 127.221094 40.785156 127.119531 C 40.058594 127.029687 39.324219 126.88125 38.609375 126.678125 C 37.898438 126.471094 37.183594 126.209375 36.503906 125.889062 C 35.824219 125.56875 35.15625 125.201562 34.527344 124.791406 C 33.902344 124.369531 33.300781 123.900781 32.746094 123.389062 C 32.191406 122.889062 31.671875 122.338281 31.203125 121.760156 C 30.738281 121.178125 30.316406 120.560937 29.949219 119.928125 C 29.585938 119.299219 29.269531 118.639062 29.015625 117.978906 C 28.757812 117.310937 28.558594 116.63125 28.414062 115.951562 C 28.273438 115.279687 28.1875 114.588281 28.15625 113.928125 C 28.128906 113.271875 28.15625 112.611719 28.234375 111.978906 C 28.3125 111.35 28.449219 110.728906 28.625 110.158594 C 28.804688 109.580469 29.03125 109.029687 29.296875 108.529687 C 29.558594 108.029687 29.867188 107.560937 30.199219 107.139062 C 30.535156 106.728906 30.90625 106.361719 31.289062 106.041406 C 31.671875 105.728906 32.085938 105.459375 32.496094 105.248437 C 32.90625 105.049219 33.339844 104.889062 33.761719 104.799219 C 34.179688 104.701562 34.605469 104.658594 35.011719 104.670312 C 35.414062 104.689844 35.816406 104.760156 36.183594 104.88125 C 36.550781 104.990625 36.902344 105.170312 37.210938 105.38125 C 37.523438 105.588281 37.804688 105.861719 38.039062 106.150781 C 38.273438 106.439844 38.476562 106.779687 38.621094 107.139062 C 38.765625 107.498437 38.863281 107.889062 38.910156 108.291406 C 38.953125 108.701562 38.945312 109.13125 38.878906 109.549219 C 38.816406 109.978906 38.695312 110.420312 38.519531 110.85 C 38.34375 111.279687 38.109375 111.709375 37.824219 112.119531 C 37.539062 112.521875 37.195312 112.920312 36.808594 113.291406 C 36.421875 113.650781 35.976562 113.998437 35.492188 114.299219 C 35.011719 114.6 34.480469 114.869531 33.921875 115.088281 C 33.359375 115.31875 32.753906 115.498437 32.132812 115.63125 C 31.511719 115.748437 30.851562 115.830469 30.1875 115.85 C 29.527344 115.88125 28.835938 115.85 28.152344 115.760156 C 27.46875 115.670312 26.769531 115.521875 26.085938 115.31875 C 25.402344 115.111719 24.71875 114.85 24.058594 114.529687 C 23.402344 114.221094 22.753906 113.85 22.140625 113.428125 C 21.527344 113.010156 20.9375 112.529687 20.390625 112.021875 C 19.84375 111.510156 19.324219 110.939844 18.863281 110.35 C 18.398438 109.760156 17.972656 109.119531 17.605469 108.471094 C 17.238281 107.810937 16.921875 107.119531 16.660156 106.428125 C 16.398438 105.728906 16.191406 105.010156 16.042969 104.299219 C 15.894531 103.580469 15.804688 102.85 15.769531 102.139062 C 15.734375 101.428125 15.757812 100.721094 15.835938 100.029687 C 15.910156 99.342187 16.046875 98.6625 16.226562 98.025781 C 16.40625 97.385156 16.644531 96.760156 16.914062 96.189844 C 17.1875 95.611719 17.511719 95.06875 17.859375 94.576562 C 18.207031 94.084375 18.601562 93.63125 19.007812 93.232812 C 19.417969 92.834375 19.859375 92.486719 20.308594 92.19375 C 20.753906 91.904687 21.226562 91.6625 21.691406 91.482812 C 22.152344 91.299219 22.632812 91.178125 23.089844 91.107812 C 23.546875 91.0375 24.007812 91.025781 24.4375 91.060937 C 24.867188 91.1 25.289062 91.19375 25.671875 91.330469 C 26.054688 91.467187 26.414062 91.658594 26.730469 91.885156 C 27.042969 92.107812 27.328125 92.38125 27.558594 92.678125 C 27.789062 92.975 27.976562 93.314844 28.113281 93.666406 C 28.246094 94.014062 28.332031 94.400781 28.359375 94.783594 C 28.386719 95.166406 28.363281 95.572656 28.28125 95.967187 C 28.199219 96.361719 28.0625 96.767969 27.867188 97.150781 C 27.675781 97.533594 27.425781 97.916406 27.128906 98.267969 C 26.828125 98.615625 26.476562 98.955469 26.078125 99.252344 C 25.683594 99.545312 25.234375 99.81875 24.757812 100.041406 C 24.277344 100.271875 23.746094 100.459375 23.199219 100.588281 C 22.648438 100.728906 22.0625 100.81875 21.464844 100.85 C 20.863281 100.889062 20.234375 100.869531 19.605469 100.799219 C 18.976562 100.728906 18.328125 100.6 17.695312 100.408594 C 17.058594 100.221094 16.414062 99.978906 15.796875 99.678125 C 15.175781 99.377344 14.558594 99.021875 13.976562 98.611719 C 13.394531 98.205469 12.828125 97.740625 12.300781 97.236719 C 11.777344 96.732812 11.277344 96.174219 10.828125 95.584375 C 10.382812 94.994531 9.96875 94.357812 9.613281 93.697656 C 9.253906 93.0375 8.941406 92.342187 8.6875 91.63125 C 8.433594 90.924219 8.230469 90.185937 8.089844 89.451562 C 7.945312 88.713281 7.859375 87.959375 7.828125 87.217187 C 7.800781 86.475 7.832031 85.725 7.914062 84.998437 C 8 84.271875 8.140625 83.549219 8.332031 82.861719 C 8.523438 82.174219 8.773438 81.502344 9.0625 80.873437 C 9.351562 80.244531 9.695312 79.639062 10.066406 79.084375 C 10.4375 78.533594 10.859375 78.014062 11.300781 77.553125 C 11.738281 77.092187 12.21875 76.674219 12.707031 76.314844 C 13.191406 75.955469 13.710938 75.646875 14.222656 75.392969 C 14.738281 75.142969 15.269531 74.947656 15.789062 74.810937 C 16.308594 74.670312 16.832031 74.592187 17.332031 74.564844 C 17.832031 74.533594 18.324219 74.564844 18.785156 74.639062 C 19.246094 74.713281 19.691406 74.846094 20.089844 75.014062 C 20.488281 75.185937 20.863281 75.404687 21.183594 75.654687 C 21.507812 75.904687 21.792969 76.197656 22.023438 76.50625 C 22.257812 76.81875 22.441406 77.166406 22.570312 77.521875 C 22.699219 77.873437 22.777344 78.252344 22.796875 78.627344 C 22.816406 79.002344 22.78125 79.392969 22.691406 79.764062 C 22.601562 80.139062 22.453125 80.517969 22.257812 80.865625 C 22.058594 81.213281 21.804688 81.557031 21.503906 81.861719 C 21.203125 82.166406 20.847656 82.451562 20.460938 82.689844 C 20.070312 82.928125 19.628906 83.139062 19.164062 83.299219 C 18.699219 83.455469 18.191406 83.576562 17.667969 83.639062 C 17.144531 83.701562 16.585938 83.717187 16.023438 83.674219 C 15.464844 83.63125 14.875 83.533594 14.300781 83.38125 C 13.722656 83.228906 13.128906 83.017969 12.558594 82.748437 C 11.988281 82.482812 11.414062 82.158594 10.871094 81.783594 C 10.328125 81.408594 9.796875 80.971094 9.304688 80.494531 C 8.808594 80.017969 8.339844 79.486719 7.914062 78.916406 C 7.488281 78.35 7.097656 77.732812 6.757812 77.088281 C 6.421875 76.44375 6.121094 75.75625 5.882812 75.057031 C 5.644531 74.357812 5.453125 73.623437 5.320312 72.885156 C 5.1875 72.150781 5.113281 71.389062 5.09375 70.635156 C 5.074219 69.885156 5.117188 69.119531 5.210938 68.373437 C 5.308594 67.63125 5.460938 66.885156 5.667969 66.170312 C 5.875 65.455469 6.140625 64.752344 6.449219 64.088281 C 6.757812 63.428125 7.121094 62.783594 7.519531 62.189844 C 7.917969 61.596094 8.367188 61.033594 8.839844 60.525781 C 9.3125 60.021875 9.828125 59.553125 10.355469 59.142969 C 10.886719 58.732812 11.449219 58.373437 12.011719 58.072656 C 12.578125 57.771875 13.164062 57.521875 13.742188 57.334375 C 14.320312 57.142969 14.910156 57.010156 15.480469 56.932031 C 16.050781 56.853906 16.617188 56.834375 17.15625 56.865625 C 17.695312 56.896875 18.222656 56.982812 18.707031 57.111719 C 19.191406 57.240625 19.65625 57.424219 20.070312 57.639062 C 20.488281 57.853906 20.871094 58.119531 21.199219 58.404687 C 21.53125 58.689844 21.820312 59.014062 22.050781 59.353906 C 22.28125 59.689844 22.464844 60.060937 22.589844 60.424219 C 22.714844 60.795312 22.785156 61.182031 22.800781 61.560937 C 22.816406 61.935937 22.773438 62.322656 22.679688 62.685937 C 22.585938 63.045312 22.429688 63.408594 22.230469 63.732812 C 22.03125 64.060937 21.777344 64.373437 21.480469 64.642969 C 21.1875 64.9125 20.839844 65.158594 20.464844 65.357812 C 20.085938 65.553125 19.664062 65.713281 19.222656 65.822656 C 18.777344 65.928125 18.296875 65.990625 17.808594 65.998437 C 17.320312 66.002344 16.800781 65.959375 16.285156 65.853906 C 15.769531 65.752344 15.238281 65.592187 14.722656 65.377344 C 14.203125 65.1625 13.679688 64.889062 13.179688 64.564844 C 12.683594 64.240625 12.1875 63.853906 11.730469 63.424219 C 11.273438 62.994531 10.832031 62.50625 10.4375 61.982812 C 10.039062 61.455469 9.671875 60.877344 9.355469 60.271875 C 9.035156 59.666406 8.757812 59.010156 8.535156 58.342187 C 8.308594 57.670312 8.132812 56.959375 8.011719 56.244531 C 7.894531 55.529687 7.828125 54.783594 7.820312 54.045312 C 7.8125 53.307031 7.863281 52.549219 7.96875 51.807031 C 8.074219 51.06875 8.242188 50.322656 8.460938 49.603906 C 8.679688 48.88125 8.960938 48.170312 9.285156 47.494531 C 9.609375 46.81875 9.992188 46.158594 10.414062 45.545312 C 10.832031 44.928125 11.308594 44.346094 11.808594 43.810937 C 12.3125 43.279687 12.859375 42.783594 13.425781 42.342187 C 13.992188 41.904687 14.59375 41.510156 15.203125 41.174219 C 15.8125 40.842187 16.453125 40.560937 17.085938 40.338281 C 17.71875 40.115625 18.367188 39.947656 19 39.838281 C 19.632812 39.728906 20.269531 39.674219 20.882812 39.678125 C 21.492188 39.678125 22.097656 39.736719 22.664062 39.842187 C 23.230469 39.94375 23.777344 40.107812 24.28125 40.303125 C 24.785156 40.498437 25.261719 40.748437 25.6875 41.021875 C 26.109375 41.299219 26.496094 41.615625 26.828125 41.951562 C 27.15625 42.2875 27.441406 42.658594 27.667969 43.033594 C 27.894531 43.408594 28.070312 43.810937 28.1875 44.201562 C 28.304688 44.596094 28.363281 45.00625 28.371094 45.396875 C 28.378906 45.783594 28.324219 46.178125 28.226562 46.541406 C 28.125 46.904687 27.964844 47.260156 27.765625 47.576562 C 27.5625 47.889062 27.308594 48.185937 27.019531 48.435937 C 26.730469 48.685937 26.394531 48.904687 26.03125 49.072656 C 25.667969 49.236719 25.265625 49.365625 24.847656 49.435937 C 24.429688 49.50625 23.980469 49.529687 23.527344 49.494531 C 23.074219 49.459375 22.601562 49.369531 22.136719 49.225 C 21.671875 49.076562 21.195312 48.873437 20.742188 48.619531 C 20.285156 48.361719 19.832031 48.045312 19.410156 47.682031 C 18.988281 47.31875 18.574219 46.896875 18.207031 46.432031 C 17.835938 45.971094 17.488281 45.451562 17.191406 44.900781 C 16.890625 44.353906 16.625 43.752344 16.414062 43.13125 C 16.203125 42.510156 16.035156 41.846094 15.925781 41.174219 C 15.816406 40.498437 15.753906 39.795312 15.753906 39.088281 C 15.753906 38.38125 15.804688 37.654687 15.917969 36.939844 C 16.03125 36.221094 16.199219 35.494531 16.425781 34.791406 C 16.652344 34.088281 16.9375 33.385156 17.269531 32.717187 C 17.605469 32.049219 17.996094 31.392969 18.429688 30.779687 C 18.867188 30.166406 19.355469 29.576562 19.875 29.0375 C 20.398438 28.494531 20.96875 27.990625 21.5625 27.541406 C 22.15625 27.088281 22.789062 26.682031 23.433594 26.334375 C 24.078125 25.982812 24.757812 25.685937 25.433594 25.447656 C 26.109375 25.205469 26.808594 25.021875 27.492188 24.896875 C 28.179688 24.771875 28.875 24.701562 29.546875 24.689844 C 30.21875 24.678125 30.890625 24.721094 31.527344 24.81875 C 32.164062 24.9125 32.789062 25.064844 33.371094 25.25625 C 33.953125 25.447656 34.511719 25.69375 35.019531 25.971094 C 35.527344 26.248437 36 26.572656 36.421875 26.920312 C 36.839844 27.264062 37.214844 27.650781 37.535156 28.045312 C 37.855469 28.44375 38.121094 28.865625 38.335938 29.291406 C 38.546875 29.713281 38.703125 30.154687 38.800781 30.584375 C 38.902344 31.014062 38.945312 31.451562 38.933594 31.861719 C 38.925781 32.275781 38.859375 32.685937 38.746094 33.057031 C 38.632812 33.432031 38.460938 33.791406 38.253906 34.107812 C 38.046875 34.424219 37.789062 34.713281 37.5 34.951562 C 37.214844 35.19375 36.878906 35.396875 36.527344 35.545312 C 36.179688 35.69375 35.789062 35.799219 35.394531 35.846094 C 35 35.892969 34.578125 35.889062 34.164062 35.826562 C 33.746094 35.764062 33.3125 35.650781 32.894531 35.478906 C 32.480469 35.303125 32.058594 35.076562 31.664062 34.791406 C 31.269531 34.510156 30.882812 34.174219 30.53125 33.7875 C 30.179688 33.404687 29.847656 32.967187 29.5625 32.490625 C 29.273438 32.014062 29.015625 31.486719 28.8125 30.935937 C 28.605469 30.38125 28.4375 29.783594 28.328125 29.170312 C 28.21875 28.553125 28.152344 27.904687 28.148438 27.252344 C 28.140625 26.596094 28.191406 25.916406 28.296875 25.244531 C 28.402344 24.572656 28.566406 23.885156 28.785156 23.213281 C 29.007812 22.545312 29.285156 21.873437 29.617188 21.228906 C 29.949219 20.584375 30.339844 19.951562 30.773438 19.353906 C 31.207031 18.75625 31.699219 18.182031 32.226562 17.654687 C 32.753906 17.123437 33.332031 16.623437 33.9375 16.178125 C 34.542969 15.732812 35.191406 15.326562 35.859375 14.978906 C 36.523438 14.63125 37.222656 14.330469 37.929688 14.088281 C 38.632812 13.846094 39.363281 13.658594 40.089844 13.529687 C 40.8125 13.404687 41.550781 13.330469 42.269531 13.31875 C 42.988281 13.303125 43.710938 13.346094 44.402344 13.44375 C 45.09375 13.5375 45.777344 13.69375 46.421875 13.892969 C 47.066406 14.092187 47.691406 14.346094 48.265625 14.635156 C 48.84375 14.928125 49.390625 15.267969 49.886719 15.635156 C 50.378906 16.002344 50.835938 16.4125 51.230469 16.834375 C 51.628906 17.260156 51.980469 17.717187 52.273438 18.178125 C 52.5625 18.639062 52.800781 19.127344 52.984375 19.603906 C 53.164062 20.080469 53.289062 20.572656 53.359375 21.041406 C 53.429688 21.510156 53.441406 21.982812 53.402344 22.424219 C 53.367188 22.865625 53.269531 23.295312 53.136719 23.685937 C 52.996094 24.076562 52.808594 24.447656 52.585938 24.771875 C 52.359375 25.092187 52.089844 25.38125 51.796875 25.619531 C 51.5 25.857812 51.164062 26.053125 50.820312 26.19375 C 50.472656 26.334375 50.09375 26.428125 49.714844 26.463281 C 49.335938 26.498437 48.933594 26.478906 48.546875 26.400781 C 48.15625 26.326562 47.757812 26.19375 47.382812 26.00625 C 47.007812 25.822656 46.632812 25.580469 46.292969 25.2875 C 45.949219 24.994531 45.621094 24.646875 45.335938 24.260156 C 45.050781 23.873437 44.789062 23.432031 44.574219 22.959375 C 44.363281 22.490625 44.183594 21.971094 44.0625 21.432031 C 43.9375 20.892969 43.859375 20.314844 43.835938 19.725 C 43.8125 19.139062 43.839844 18.521875 43.929688 17.904687 C 44.015625 17.291406 44.15625 16.654687 44.355469 16.033594 C 44.558594 15.4125 44.816406 14.783594 45.128906 14.178125 C 45.4375 13.576562 45.808594 12.975 46.226562 12.4125 C 46.644531 11.846094 47.121094 11.295312 47.636719 10.791406 C 48.152344 10.283594 48.722656 9.803125 49.320312 9.377344 C 49.921875 8.947656 50.566406 8.557031 51.234375 8.217187 C 51.902344 7.88125 52.605469 7.592187 53.320312 7.357812 C 54.035156 7.127344 54.78125 6.94375 55.523438 6.822656 C 56.261719 6.701562 57.023438 6.639062 57.769531 6.63125 C 58.515625 6.623437 59.269531 6.674219 59.996094 6.779687 C 60.722656 6.885156 61.449219 7.053125 62.136719 7.264062 C 62.824219 7.475 63.496094 7.748437 64.125 8.057031 C 64.753906 8.365625 65.355469 8.728906 65.90625 9.119531 C 66.457031 9.510156 66.972656 9.951562 67.429688 10.408594 C 67.890625 10.869531 68.304688 11.365625 68.660156 11.869531 C 69.015625 12.373437 69.320312 12.908594 69.566406 13.435937 C 69.8125 13.967187 70.003906 14.514062 70.136719 15.045312 C 70.269531 15.576562 70.34375 16.115625 70.367188 16.627344 C 70.394531 17.139062 70.359375 17.646875 70.277344 18.119531 C 70.199219 18.588281 70.0625 19.041406 69.890625 19.451562 C 69.71875 19.861719 69.496094 20.244531 69.242188 20.576562 C 68.992188 20.908594 68.695312 21.201562 68.386719 21.44375 C 68.074219 21.682031 67.722656 21.873437 67.371094 22.010156 C 67.015625 22.146875 66.636719 22.232812 66.265625 22.260156 C 65.890625 22.2875 65.503906 22.260156 65.132812 22.178125 C 64.761719 22.096094 64.386719 21.955469 64.042969 21.764062 C 63.695312 21.572656 63.359375 21.326562 63.058594 21.033594 C 62.761719 20.744531 62.480469 20.396875 62.246094 20.017969 C 62.015625 19.635156 61.808594 19.205469 61.660156 18.752344 C 61.507812 18.295312 61.398438 17.799219 61.34375 17.2875 C 61.285156 16.775781 61.277344 16.228906 61.328125 15.682031 C 61.382812 15.13125 61.484375 14.560937 61.648438 13.998437 C 61.808594 13.435937 62.027344 12.857812 62.300781 12.303125 C 62.574219 11.748437 62.910156 11.19375 63.292969 10.666406 C 63.675781 10.142969 64.117188 9.627344 64.601562 9.154687 C 65.085938 8.678125 65.625 8.225 66.199219 7.822656 C 66.773438 7.416406 67.394531 7.045312 68.042969 6.728906 C 68.691406 6.4125 69.378906 6.135156 70.082031 5.916406 C 70.785156 5.697656 71.523438 5.529687 72.261719 5.420312 C 73 5.310937 73.761719 5.25625 74.511719 5.260156 C 75.261719 5.264062 76.027344 5.326562 76.769531 5.447656 C 77.511719 5.564844 78.253906 5.740625 78.964844 5.971094 C 79.675781 6.197656 80.375 6.482812 81.03125 6.814844 C 81.691406 7.142969 82.328125 7.529687 82.914062 7.947656 C 83.503906 8.365625 84.054688 8.834375 84.558594 9.326562 C 85.058594 9.81875 85.515625 10.353906 85.917969 10.900781 C 86.316406 11.447656 86.667969 12.025781 86.960938 12.607812 C 87.253906 13.189844 87.492188 13.791406 87.675781 14.385156 C 87.855469 14.978906 87.976562 15.580469 88.046875 16.1625 C 88.113281 16.744531 88.125 17.326562 88.085938 17.877344 C 88.046875 18.428125 87.949219 18.963281 87.8125 19.459375 C 87.675781 19.959375 87.484375 20.432031 87.261719 20.857812 C 87.039062 21.283594 86.769531 21.674219 86.476562 22.010156 C 86.183594 22.35 85.851562 22.646875 85.507812 22.885156 C 85.167969 23.123437 84.792969 23.314844 84.421875 23.447656 C 84.050781 23.580469 83.65625 23.658594 83.277344 23.678125 C 82.898438 23.701562 82.511719 23.666406 82.148438 23.580469 C 81.785156 23.490625 81.421875 23.346094 81.097656 23.154687 C 80.769531 22.963281 80.457031 22.717187 80.1875 22.428125 C 79.917969 22.142969 79.671875 21.807031 79.480469 21.439844 C 79.285156 21.072656 79.125 20.658594 79.023438 20.225 C 78.917969 19.791406 78.859375 19.322656 78.855469 18.846094 C 78.851562 18.369531 78.902344 17.865625 79.007812 17.361719 C 79.113281 16.861719 79.277344 16.342187 79.496094 15.838281 C 79.714844 15.338281 79.988281 14.826562 80.316406 14.346094 C 80.648438 13.865625 81.03125 13.389062 81.464844 12.947656 C 81.898438 12.510156 82.386719 12.084375 82.914062 11.709375 C 83.441406 11.330469 84.019531 10.982812 84.628906 10.685937 C 85.234375 10.385156 85.886719 10.127344 86.558594 9.924219 C 87.226562 9.721094 87.933594 9.564844 88.648438 9.467187 C 89.359375 9.369531 90.101562 9.322656 90.835938 9.338281 C 91.570312 9.353906 92.324219 9.424219 93.058594 9.553125 C 93.792969 9.682031 94.53125 9.869531 95.242188 10.107812 C 95.953125 10.35 96.660156 10.646875 97.328125 10.994531 C 97.996094 11.338281 98.644531 11.740625 99.246094 12.182031 C 99.851562 12.623437 100.429688 13.115625 100.949219 13.635156 C 101.46875 14.158594 101.949219 14.721094 102.378906 15.307031 C 102.808594 15.889062 103.191406 16.510156 103.511719 17.135156 C 103.828125 17.760156 104.101562 18.4125 104.308594 19.060937 C 104.511719 19.705469 104.671875 20.369531 104.761719 21.014062 C 104.859375 21.6625 104.898438 22.310937 104.878906 22.932031 C 104.871094 23.553125 104.800781 24.170312 104.679688 24.744531 C 104.558594 25.322656 104.390625 25.88125 104.179688 26.392969 C 103.96875 26.904687 103.710938 27.389062 103.421875 27.81875 C 103.140625 28.252344 102.808594 28.642969 102.460938 28.978906 C 102.121094 29.31875 101.730469 29.607812 101.351562 29.838281 C 100.96875 30.072656 100.558594 30.252344 100.160156 30.373437 C 99.753906 30.498437 99.339844 30.564844 98.941406 30.576562 C 98.546875 30.588281 98.148438 30.541406 97.78125 30.447656 C 97.410156 30.353906 97.054688 30.201562 96.734375 30.00625 C 96.414062 29.810937 96.113281 29.564844 95.863281 29.283594 C 95.609375 28.998437 95.386719 28.670312 95.21875 28.314844 C 95.050781 27.963281 94.925781 27.564844 94.851562 27.158594 C 94.78125 26.752344 94.757812 26.310937 94.789062 25.869531 C 94.824219 25.428125 94.914062 24.967187 95.058594 24.514062 C 95.203125 24.060937 95.40625 23.6 95.660156 23.158594 C 95.917969 22.717187 96.230469 22.275781 96.59375 21.869531 C 96.957031 21.459375 97.375 21.064844 97.835938 20.713281 C 98.296875 20.357812 98.8125 20.025781 99.359375 19.744531 C 99.90625 19.467187 100.5 19.217187 101.121094 19.025781 C 101.730469 18.834375 102.390625 18.682031 103.058594 18.592187 C 103.730469 18.498437 104.429688 18.459375 105.121094 18.478906 C 105.820312 18.494531 106.539062 18.56875 107.25 18.697656 C 107.949219 18.830469 108.671875 19.021875 109.359375 19.264062 C 110.058594 19.510156 110.75 19.814844 111.398438 20.166406 C 112.058594 20.517969 112.699219 20.928125 113.300781 21.38125 C 113.898438 21.834375 114.480469 22.338281 115 22.877344 C 115.53125 23.416406 116.019531 24.002344 116.449219 24.611719 C 116.878906 25.217187 117.269531 25.865625 117.609375 26.525781 C 117.941406 27.185937 118.21875 27.873437 118.441406 28.564844 C 118.660156 29.252344 118.828125 29.963281 118.941406 30.658594 C 119.050781 31.353906 119.101562 32.060937 119.089844 32.740625 C 119.089844 33.424219 119.03125 34.103906 118.910156 34.748437 C 118.800781 35.392969 118.628906 36.025781 118.421875 36.611719 C 118.21875 37.201562 117.949219 37.764062 117.660156 38.275781 C 117.371094 38.7875 117.03125 39.267969 116.671875 39.689844 C 116.308594 40.115625 115.910156 40.494531 115.5 40.814844 C 115.089844 41.139062 114.648438 41.4125 114.21875 41.623437 C 113.78125 41.838281 113.328125 41.998437 112.890625 42.1 C 112.449219 42.201562 112 42.248437 111.578125 42.240625 C 111.160156 42.236719 110.738281 42.170312 110.359375 42.060937 C 109.980469 41.951562 109.609375 41.783594 109.289062 41.580469 C 108.96875 41.377344 108.671875 41.123437 108.429688 40.838281 C 108.179688 40.557031 107.96875 40.228906 107.820312 39.885156 C 107.660156 39.5375 107.550781 39.158594 107.5 38.771875 C 107.449219 38.38125 107.449219 37.967187 107.511719 37.560937 C 107.558594 37.154687 107.679688 36.728906 107.851562 36.322656 C 108.011719 35.916406 108.238281 35.502344 108.519531 35.119531 C 108.789062 34.736719 109.128906 34.361719 109.5 34.025781 C 109.878906 33.685937 110.320312 33.365625 110.789062 33.092187 C 111.261719 32.822656 111.78125 32.576562 112.320312 32.385156 C 112.871094 32.19375 113.460938 32.041406 114.058594 31.947656 C 114.671875 31.853906 115.308594 31.803125 115.949219 31.814844 C 116.601562 31.826562 117.261719 31.889062 117.929688 32.010156 C 118.589844 32.13125 119.261719 32.314844 119.921875 32.549219 C 120.570312 32.783594 121.230469 33.080469 121.859375 33.424219 C 122.488281 33.771875 123.109375 34.174219 123.691406 34.627344 C 124.269531 35.076562 124.828125 35.580469 125.339844 36.119531 C 125.851562 36.6625 126.328125 37.252344 126.761719 37.869531 C 127.179688 38.486719 127.570312 39.150781 127.898438 39.826562 C 128.230469 40.502344 128.511719 41.213281 128.730469 41.928125 C 128.949219 42.642969 129.121094 43.38125 129.230469 44.111719 C 129.328125 44.842187 129.378906 45.588281 129.378906 46.310937 C 129.371094 47.0375 129.308594 47.764062 129.191406 48.459375 C 129.070312 49.158594 128.898438 49.846094 128.679688 50.490625 C 128.460938 51.139062 128.191406 51.764062 127.878906 52.346094 C 127.570312 52.924219 127.210938 53.471094 126.828125 53.967187 C 126.441406 54.463281 126.019531 54.916406 125.578125 55.314844 C 125.128906 55.709375 124.660156 56.060937 124.179688 56.35 C 123.710938 56.642969 123.210938 56.88125 122.71875 57.060937 C 122.21875 57.240625 121.71875 57.361719 121.238281 57.432031 C 120.761719 57.498437 120.269531 57.510156 119.820312 57.471094 C 119.371094 57.435937 118.929688 57.338281 118.53125 57.201562 C 118.128906 57.064844 117.75 56.873437 117.421875 56.650781 C 117.089844 56.428125 116.789062 56.158594 116.539062 55.865625 C 116.300781 55.572656 116.089844 55.240625 115.949219 54.892969 C 115.800781 54.549219 115.699219 54.174219 115.660156 53.799219 C 115.621094 53.424219 115.628906 53.029687 115.699219 52.646875 C 115.769531 52.264062 115.898438 51.869531 116.070312 51.498437 C 116.25 51.13125 116.488281 50.764062 116.769531 50.428125 C 117.058594 50.096094 117.398438 49.775781 117.78125 49.498437 C 118.160156 49.221094 118.589844 48.971094 119.050781 48.767969 C 119.511719 48.564844 120.019531 48.396875 120.550781 48.2875 C 121.078125 48.174219 121.648438 48.103906 122.230469 48.092187 C 122.800781 48.080469 123.410156 48.123437 124.011719 48.221094 C 124.609375 48.31875 125.230469 48.471094 125.839844 48.685937 C 126.441406 48.896875 127.058594 49.166406 127.648438 49.486719 C 128.230469 49.810937 128.820312 50.19375 129.359375 50.619531 C 129.910156 51.049219 130.441406 51.5375 130.929688 52.060937 C 131.421875 52.588281 131.878906 53.166406 132.28125 53.771875 C 132.691406 54.38125 133.058594 55.033594 133.378906 55.709375 C 133.691406 56.38125 133.960938 57.096094 134.179688 57.814844 C 134.390625 58.5375 134.550781 59.283594 134.640625 60.029687 C 134.738281 60.775781 134.789062 61.5375 134.769531 62.2875 C 134.761719 63.033594 134.679688 63.791406 134.550781 64.517969 C 134.429688 65.248437 134.238281 65.971094 134.011719 66.658594 C 133.769531 67.346094 133.480469 68.014062 133.148438 68.642969 C 132.820312 69.267969 132.441406 69.865625 132.03125 70.416406 C 131.609375 70.963281 131.160156 71.471094 130.679688 71.928125 C 130.199219 72.38125 129.691406 72.791406 129.171875 73.139062 C 128.648438 73.490625 128.101562 73.791406 127.550781 74.029687 C 127.011719 74.271875 126.441406 74.455469 125.898438 74.584375 C 125.351562 74.713281 124.800781 74.783594 124.28125 74.799219 C 123.75 74.81875 123.230469 74.779687 122.75 74.69375 C 122.269531 74.607812 121.800781 74.467187 121.378906 74.291406 C 120.960938 74.115625 120.570312 73.885156 120.230469 73.63125 C 119.890625 73.377344 119.589844 73.076562 119.339844 72.764062 C 119.089844 72.447656 118.890625 72.1 118.738281 71.744531 C 118.601562 71.389062 118.511719 71.010156 118.46875 70.635156 C 118.441406 70.264062 118.460938 69.873437 118.53125 69.50625 C 118.609375 69.135156 118.738281 68.764062 118.921875 68.420312 C 119.109375 68.080469 119.351562 67.744531 119.628906 67.451562 C 119.910156 67.154687 120.25 66.88125 120.621094 66.650781 C 120.988281 66.424219 121.410156 66.225 121.859375 66.080469 C 122.300781 65.935937 122.789062 65.830469 123.289062 65.779687 C 123.789062 65.732812 124.320312 65.732812 124.859375 65.791406 C 125.390625 65.846094 125.949219 65.959375 126.5 66.127344 C 127.050781 66.295312 127.609375 66.521875 128.148438 66.803125 C 128.679688 67.084375 129.21875 67.424219 129.730469 67.814844 C 130.238281 68.201562 130.738281 68.650781 131.191406 69.139062 C 131.648438 69.627344 132.078125 70.174219 132.460938 70.752344 C 132.851562 71.330469 133.199219 71.955469 133.5 72.607812 C 133.789062 73.25625 134.050781 73.947656 134.238281 74.654687 C 134.441406 75.357812 134.589844 76.096094 134.671875 76.834375 C 134.761719 77.572656 134.789062 78.334375 134.769531 79.080469 C 134.738281 79.830469 134.648438 80.592187 134.511719 81.330469 C 134.371094 82.06875 134.171875 82.810937 133.921875 83.514062 C 133.671875 84.221094 133.371094 84.9125 133.011719 85.564844 C 132.660156 86.217187 132.261719 86.846094 131.820312 87.428125 C 131.378906 88.00625 130.890625 88.553125 130.378906 89.045312 C 129.871094 89.5375 129.320312 89.986719 128.75 90.377344 C 128.191406 90.767969 127.589844 91.111719 127 91.392969 C 126.398438 91.674219 125.78125 91.904687 125.171875 92.072656 C 124.570312 92.244531 123.949219 92.357812 123.351562 92.4125 C 122.761719 92.471094 122.160156 92.471094 121.601562 92.424219 C 121.039062 92.373437 120.488281 92.267969 119.988281 92.119531 C 119.480469 91.975 119 91.775781 118.558594 91.541406 C 118.128906 91.310937 117.730469 91.033594 117.378906 90.732812 C 117.03125 90.432031 116.730469 90.092187 116.480469 89.744531 C 116.238281 89.396875 116.039062 89.014062 115.898438 88.639062 C 115.761719 88.260156 115.679688 87.865625 115.648438 87.482812 C 115.621094 87.1 115.648438 86.709375 115.730469 86.342187 C 115.808594 85.978906 115.941406 85.615625 116.128906 85.2875 C 116.308594 84.959375 116.550781 84.646875 116.828125 84.373437 C 117.109375 84.107812 117.441406 83.861719 117.800781 83.670312 C 118.148438 83.475 118.558594 83.31875 118.980469 83.217187 C 119.398438 83.111719 119.859375 83.053125 120.328125 83.053125 C 120.789062 83.053125 121.28125 83.107812 121.769531 83.213281 C 122.261719 83.322656 122.761719 83.486719 123.25 83.709375 C 123.738281 83.928125 124.230469 84.205469 124.699219 84.5375 C 125.171875 84.869531 125.628906 85.25625 126.050781 85.689844 C 126.46875 86.123437 126.878906 86.615625 127.230469 87.139062 C 127.589844 87.670312 127.921875 88.248437 128.199219 88.853906 C 128.480469 89.459375 128.71875 90.111719 128.898438 90.775781 C 129.078125 91.44375 129.21875 92.150781 129.300781 92.857812 C 129.371094 93.56875 129.398438 94.303125 129.359375 95.033594 C 129.328125 95.764062 129.238281 96.510156 129.089844 97.236719 C 128.941406 97.963281 128.730469 98.69375 128.46875 99.396875 C 128.210938 100.1 127.890625 100.799219 127.519531 101.451562 C 127.148438 102.111719 126.730469 102.748437 126.269531 103.338281 C 125.808594 103.928125 125.300781 104.490625 124.761719 104.998437 C 124.230469 105.510156 123.640625 105.978906 123.039062 106.400781 C 122.441406 106.810937 121.808594 107.170312 121.171875 107.478906 C 120.519531 107.791406 119.859375 108.041406 119.199219 108.240625 C 118.539062 108.428125 117.859375 108.56875 117.199219 108.650781 C 116.550781 108.728906 115.878906 108.748437 115.25 108.721094 C 114.621094 108.701562 114 108.611719 113.410156 108.478906 C 112.820312 108.35 112.261719 108.158594 111.738281 107.939844 C 111.21875 107.709375 110.730469 107.439844 110.289062 107.139062 C 109.851562 106.838281 109.449219 106.498437 109.109375 106.139062 C 108.769531 105.791406 108.46875 105.400781 108.230469 104.998437 C 108 104.611719 107.808594 104.189844 107.679688 103.779687 C 107.558594 103.369531 107.488281 102.951562 107.46875 102.541406 C 107.449219 102.139062 107.488281 101.740625 107.578125 101.361719 C 107.671875 100.990625 107.820312 100.619531 108.011719 100.299219 C 108.191406 99.975 108.441406 99.670312 108.710938 99.4125 C 108.988281 99.158594 109.308594 98.935937 109.660156 98.764062 C 110 98.592187 110.390625 98.463281 110.789062 98.389062 C 111.191406 98.314844 111.621094 98.2875 112.050781 98.322656 C 112.480469 98.353906 112.929688 98.439844 113.371094 98.584375 C 113.808594 98.728906 114.25 98.982812 114.691406 99.182031 " transform="matrix(1,0,0,-1,0,141.6)"/>
</g>
</svg>
